<svg width="82" height="48" viewBox="0 0 82 48" fill="none" xmlns="http://www.w3.org/2000/svg">
<g id="Modo_de_isolamento" clip-path="url(#clip0_1118_10)">
<path id="Vector" d="M82.0002 21.8272L70.0647 22.2014L75.8807 9.93621L64.2183 16.3727L64.9592 1.11502L56.5335 13.4344L50.9932 0L51.7739 17.463C51.8203 17.5063 51.8667 17.5449 51.9144 17.5898L53.6083 12.774L56.0007 18.6785L62.152 9.68104L61.6165 20.7323L70.1801 16.1995L65.7107 25.2387L72.9794 24.7717L69.528 30.0189L81.9989 21.8272H82.0002ZM8.29999 9.58361C7.82019 9.51556 7.27279 10.3398 7.48353 10.5146C7.78705 10.7852 9.21719 11.8709 8.79968 12.542C7.21049 14.1597 6.2933 15.4448 5.22899 16.9109C1.75505 19.028 3.0871 22.2849 1.99363 25.1521L0.546263 27.0698C-0.164164 27.942 -0.193323 35.328 0.538311 35.9451C1.32164 36.5482 2.02676 36.9751 2.9254 37.4096C4.08647 40.6093 6.63659 43.0342 9.78579 43.4982C12.4936 43.8956 15.0782 42.7589 16.898 40.6758C16.9484 40.6387 45.6491 44.8312 45.6491 44.8312C46.9745 46.4782 48.7771 47.618 50.8355 47.9211C53.6507 48.334 56.3334 47.0891 58.1611 44.8452L58.7019 44.1755C59.1578 44.0456 59.8762 43.8709 60.2235 42.7249C60.9551 40.2227 61.4455 38.0267 60.7364 37.2426C60.0472 36.4554 61.1155 35.8337 61.26 35.1873C61.582 33.2434 61.5913 32.6449 61.3554 31.4927C61.1778 30.2385 61.8763 29.2318 61.7901 28.7926C61.5436 27.5384 60.8 27.195 59.4667 26.9089C59.0478 26.8177 58.5322 24.1284 57.8854 23.9582C57.1273 23.7587 56.2909 25.4027 55.0928 25.1707C54.1544 24.9882 53.7395 22.2741 52.4737 22.0468C51.758 21.9169 49.9342 23.7541 49.1562 24.1314C47.6624 24.8552 44.2998 24.365 44.3104 24.0835C42.5569 21.6741 39.857 18.0584 37.5932 15.5747C35.7641 13.538 25.7068 12.0039 18.36 11.3342C16.4818 11.0621 14.3426 10.779 11.3405 10.3383C9.88653 10.0924 9.50613 9.91919 8.3994 9.61454L8.29999 9.59907L8.30264 9.58206L8.29999 9.58361ZM20.1294 15.0087C20.8981 15.0087 21.9956 15.0566 23.4072 15.1943V15.2097C24.3482 15.2979 25.4284 15.4309 26.6425 15.6149C31.1079 16.3309 34.1391 17.1166 34.8588 17.9331C35.9762 19.1579 38.2307 22.0004 39.1307 23.1943L15.9079 18.9739C16.6263 18.0847 17.9769 15.9474 18.8239 15.202C18.9193 15.0938 19.3593 15.0242 20.1281 15.0164V15.0087H20.1294ZM51.1576 21.04C51.1019 21.0663 51.0502 21.0926 50.9946 21.1204L51.3524 21.3277L51.1589 21.04H51.1576ZM10.9641 27.9575C11.1271 27.9575 11.2915 27.976 11.4572 27.9992C14.1054 28.3874 15.9437 31.1525 15.611 34.2424C15.277 37.3308 12.9072 39.4788 10.259 39.0907C7.6121 38.7009 5.77241 35.9358 6.10509 32.8475C6.41657 29.9509 8.52134 27.8832 10.9641 27.9559V27.9575ZM52.0138 32.3773C52.1768 32.3773 52.3412 32.3959 52.5069 32.4206C55.1551 32.8088 56.9947 35.5739 56.6621 38.6638C56.3294 41.7522 53.9569 43.9002 51.31 43.5105C48.6631 43.1224 46.8234 40.3557 47.1561 37.2673C47.4676 34.3708 49.571 32.3031 52.0138 32.3773Z" fill="#F1F0E6"/>
</g>
<defs>
<clipPath id="clip0_1118_10">
<rect width="82" height="48" fill="white"/>
</clipPath>
</defs>
</svg>
