<svg width="134" height="170" viewBox="0 0 134 170" fill="none" xmlns="http://www.w3.org/2000/svg">
<path d="M100.5 100.5C119.002 81.9985 119.002 52.0015 100.5 33.5C81.9985 14.9985 52.0015 14.9985 33.5 33.5C14.9985 52.0015 14.9985 81.9985 33.5 100.5C52.0015 119.002 81.9985 119.002 100.5 100.5Z" fill="#E98943"/>
<path d="M74.5499 162.247C74.5499 166.417 71.1688 169.798 66.9994 169.798C62.8301 169.798 59.449 166.417 59.449 162.247C59.449 158.078 62.8301 154.697 66.9994 154.697C71.1688 154.697 74.5499 158.078 74.5499 162.247Z" fill="#E98943"/>
<path d="M68.83 66.998H65.1688V162.247H68.83V66.998Z" fill="#E98943"/>
</svg>
