<svg width="134" height="170" viewBox="0 0 134 170" fill="none" xmlns="http://www.w3.org/2000/svg">
<path d="M100.5 100.5C119.002 81.9985 119.002 52.0015 100.5 33.5C81.9985 14.9985 52.0015 14.9985 33.5 33.5C14.9985 52.0015 14.9985 81.9985 33.5 100.5C52.0015 119.002 81.9985 119.002 100.5 100.5Z" fill="#E98943"/>
<path d="M74.5499 162.247C74.5499 166.417 71.1688 169.798 66.9994 169.798C62.8301 169.798 59.449 166.417 59.449 162.247C59.449 158.078 62.8301 154.697 66.9994 154.697C71.1688 154.697 74.5499 158.078 74.5499 162.247Z" fill="#E98943"/>
<path d="M68.83 66.998H65.1688V162.247H68.83V66.998Z" fill="#E98943"/>
<g clip-path="url(#clip0_2285_2)">
<path d="M62.9454 93.6431L65.1351 95.761L65.6825 96.7292L65.2567 98L66.4124 97.3949L67.6289 94.6113V92.8564L68.8454 93.401L67.5072 95.7005L69.4536 94.3087L70.001 92.3118L71.8866 91.041V87.4103L75.4753 84.3846H76.7526L77.9082 83.1744H81.6186L83.0784 82.1456L84.1124 80.6328L85.8763 78.5754V77.1231L87.0928 75.5497V74.7026L87.701 73.1897V70.4667L87.3361 69.3169L88.066 67.8041L88.4918 68.6513L89.7691 67.32L90.2557 65.5651L93.0536 63.6892L95 60.24V58.3641L94.0876 55.7015L92.0804 55.399L90.4381 54.3097L88.3701 52.6759L86.4845 51.8287L84.7814 51.9497L82.7742 51.1026H81.0103L79.1247 52.5549L79.1856 51.1026V49.8923L78.5165 49.2872H76.7526L75.4144 48.319L74.0155 48.561L73.4072 49.5897L71.2784 50.2554L69.6361 50.3764L69.332 49.2872L67.0814 49.7108L68.5412 47.2903L70.2443 45.8379L71.0959 44.7487L70.001 44.2646L69.4536 42.0256V40.8154H68.2371L66.6557 43.9015L64.9526 43.7805L63.067 43.2964L61.5464 43.599V44.4462L58.7485 44.5672L57.532 45.5354L56.4979 44.9303L56.0722 43.6595V42.0256V40.8154L55.4639 40.5128V39L54.2474 40.1497L52.4227 41.1785L51.2062 41.2995V42.0256L48.834 40.9364L48.4082 41.36L49.0773 41.6626L49.0165 43.2359L50.1722 43.9015L50.5371 44.5067L49.5031 44.6277L47.9216 46.0195L46.5227 46.6851L44.8804 45.8379L44.5763 44.4462L43.1773 45.0513H40.866V46.2615L42.0825 46.3221V46.8667L41.1701 46.9272L40.866 47.5323L41.3526 48.8031L41.4134 50.4369L41.2918 52.0708L40.866 54.0072L39.9536 54.5518L38.4938 54.8544L37.2773 55.7621L36.7299 57.3354L36 58.5456V60.1795L36.2433 61.1477L37.034 61.8738L38.0072 63.2656L38.9804 63.3867L40.0144 62.6605L40.3186 64.839L41.7784 64.5364L43.6031 64.6574L43.7247 63.7497L45.732 62.6L47.6784 62.5395L47.8 64.4154L48.834 66.1703L50.233 66.7149L51.5711 67.441L53.0918 68.2277L54.0041 67.9251L55.3423 68.6513L55.4639 70.3456L55.5247 72.2215L58.201 72.2821L58.0186 73.4318L59.1134 74.7026V75.9128L58.566 77.3046L59.1742 77.9097L59.0526 80.8749L60.6948 81.1774L62.0938 81.601L62.5804 83.4164L63.8577 83.5979L64.2835 84.0821L63.8577 86.1395L64.5876 86.4421L65.1959 87.4708L64.6485 88.9836L63.0062 89.7097L61.4856 91.1015L59.9041 92.8564H60.9381L62.033 93.7036L62.9454 93.6431Z" fill="#F1F0E6"/>
</g>
<defs>
<clipPath id="clip0_2285_2">
<rect width="59" height="59" fill="white" transform="translate(36 39)"/>
</clipPath>
</defs>
</svg>
