<svg width="292" height="273" viewBox="0 0 292 273" fill="none" xmlns="http://www.w3.org/2000/svg">
<path d="M57.6817 44.9896L58.8348 33.0483C58.8348 33.0483 55.1895 32.7754 51.5407 32.5062C49.7165 32.3786 47.8923 32.2511 46.5179 32.1565C45.1519 32.1188 44.2389 32.096 44.2389 32.096L43.7782 44.0791C43.7782 44.0791 44.6448 44.0993 45.9536 44.1312C47.2603 44.2237 48.9917 44.3461 50.7303 44.4684C54.2006 44.7273 57.678 44.9861 57.678 44.9861L57.6817 44.9896Z" fill="#3F3F3F"/>
<path d="M43.452 52.7658L41.8044 95.7857C41.8044 95.7857 42.4856 95.8028 43.5126 95.823C44.5337 95.9005 45.8904 95.999 47.247 96.0976C49.9674 96.2945 52.6879 96.4915 52.6879 96.4915L56.8448 53.634C56.8448 53.634 53.4959 53.3867 50.1506 53.1357C48.4763 53.0192 46.802 52.9026 45.5452 52.809C44.2899 52.7795 43.4555 52.7622 43.4555 52.7622L43.452 52.7658Z" fill="#3F3F3F"/>
<path d="M41.4708 104.465L41.0136 116.445C41.0136 116.445 41.6234 116.456 42.5326 116.468C43.4395 116.541 44.6462 116.629 45.8529 116.716C48.27 116.895 50.6904 117.063 50.6904 117.063L51.8508 105.129C51.8508 105.129 49.2553 104.94 46.6634 104.754C45.3674 104.658 44.0678 104.558 43.0967 104.487C42.1197 104.472 41.467 104.455 41.467 104.455L41.4708 104.465Z" fill="#3F3F3F"/>
<path d="M66.9238 50.4865L67.5208 46.1818L57.6817 44.9897C57.6817 44.9897 54.2043 44.7309 50.734 44.472C48.9954 44.3497 47.2568 44.2274 45.9573 44.1348C44.6556 44.1027 43.7819 44.0827 43.7819 44.0827L33.8893 43.8648L33.9063 48.2131C33.9063 48.2131 35.9711 48.2569 39.0735 48.3172C42.176 48.3846 46.3081 48.4258 50.4404 48.8021C54.5707 49.0857 58.698 49.3944 61.784 49.8436C64.8649 50.2251 66.9238 50.4865 66.9238 50.4865Z" fill="#3F3F3F"/>
<path d="M56.8448 53.634L66.323 54.7877L66.9237 50.4865C66.9237 50.4865 64.8649 50.2251 61.784 49.8436C58.7015 49.3908 54.5778 49.0856 50.4404 48.8021C46.3081 48.4258 42.1724 48.3811 39.0734 48.3172C35.9709 48.2498 33.9063 48.2131 33.9063 48.2131L33.916 52.5544L43.4519 52.7658C43.4519 52.7658 44.2899 52.7795 45.5417 52.8126C46.7985 52.9063 48.4728 53.0228 50.147 53.1393C53.4959 53.3867 56.8413 53.6376 56.8413 53.6376L56.8448 53.634Z" fill="white"/>
<path d="M51.8509 105.136L59.1813 106.034L59.782 101.732C59.782 101.732 58.1844 101.536 55.7826 101.239C53.3934 100.871 50.1771 100.653 46.9571 100.431C43.7493 100.116 40.5161 100.105 38.0946 100.048C35.6731 99.9906 34.0575 99.9512 34.0575 99.9512L34.0708 104.296L41.4673 104.469C41.4673 104.469 42.1198 104.479 43.097 104.501C44.068 104.572 45.3677 104.672 46.6637 104.768C49.2556 104.954 51.8511 105.143 51.8511 105.143L51.8509 105.136Z" fill="#3F3F3F"/>
<path d="M59.7749 101.733L60.3719 97.4278L52.6842 96.4879C52.6842 96.4879 49.9672 96.2873 47.2433 96.094C45.8867 95.9954 44.5264 95.8934 43.5089 95.8195C42.4819 95.7992 41.8007 95.7821 41.8007 95.7821L34.0442 95.6065L34.0575 99.9513C34.0575 99.9513 35.673 99.9907 38.0946 100.048C40.5161 100.105 43.7458 100.12 46.9571 100.431C50.1734 100.649 53.3898 100.867 55.7825 101.239C58.1844 101.536 59.782 101.732 59.782 101.732L59.7749 101.733Z" fill="white"/>
<path d="M90.9628 50.6685L93.8119 39.0179C93.8119 39.0179 90.2367 38.2052 86.6579 37.3891C84.8772 36.9683 83.0796 36.5943 81.7205 36.3817C80.3715 36.144 79.4696 35.9784 79.4696 35.9784L77.3118 47.7813C77.3118 47.7813 78.1741 47.9299 79.4552 48.1585C80.7501 48.3653 82.458 48.7164 84.1564 49.1211C87.5596 49.8948 90.9593 50.6721 90.9593 50.6721L90.9628 50.6685Z" fill="#3F3F3F"/>
<path d="M75.7491 56.3239L68.0131 98.6788C68.0131 98.6788 68.6822 98.796 69.6878 98.9771C70.6997 99.1225 72.0318 99.3998 73.3541 99.7236C76.0087 100.332 78.6632 100.933 78.6632 100.933L88.8953 59.1116C88.8953 59.1116 85.6211 58.3707 82.3395 57.6157C80.7056 57.2239 79.0621 56.8856 77.8137 56.6885C76.5721 56.4698 75.7491 56.3239 75.7491 56.3239Z" fill="#3F3F3F"/>
<path d="M66.4541 107.225L64.2961 119.021C64.2961 119.021 64.8937 119.125 65.7881 119.277C66.6821 119.407 67.8709 119.652 69.0357 119.943C71.3928 120.476 73.7501 121.016 73.7501 121.016L76.5991 109.366C76.5991 109.366 74.0701 108.794 71.5409 108.215C70.2794 107.907 69.0118 107.643 68.0499 107.504C67.0909 107.332 66.4504 107.222 66.4504 107.222L66.4541 107.225Z" fill="#3F3F3F"/>
<path d="M99.3306 57.4213L100.54 53.2493C100.54 53.2493 98.155 52.578 95.7628 51.9069C93.3806 51.2035 90.9557 50.6686 90.9557 50.6686C90.9557 50.6686 87.5525 49.8949 84.1528 49.1176C82.4544 48.7129 80.7464 48.3618 79.4516 48.155C78.167 47.9301 77.3082 47.7778 77.3082 47.7778C77.3082 47.7778 74.8714 47.3501 72.4239 46.919C69.9862 46.4485 67.5243 46.1781 67.5243 46.1781L66.9273 50.4828C66.9273 50.4828 68.9883 50.6836 72.045 51.2581C75.0983 51.8434 79.213 52.3912 83.2513 53.3541C91.3796 55.0436 99.3339 57.4105 99.3339 57.4105L99.3306 57.4213Z" fill="#3F3F3F"/>
<path d="M88.8952 59.1046C88.8952 59.1046 91.2305 59.6165 93.5231 60.2969C95.8221 60.9416 98.1246 61.5897 98.1246 61.5897L99.3341 57.4177C99.3341 57.4177 91.3798 55.0508 83.2515 53.3613C79.2132 52.3984 75.102 51.847 72.0452 51.2653C68.992 50.6871 66.9275 50.49 66.9275 50.49L66.3268 54.7912C66.3268 54.7912 68.7028 55.0492 71.0474 55.5004C73.3947 55.9123 75.7491 56.324 75.7491 56.324C75.7491 56.324 76.5793 56.4697 77.8138 56.6886C79.0622 56.8858 80.7057 57.224 82.3396 57.6159C85.6176 58.3674 88.8954 59.1117 88.8954 59.1117L88.8952 59.1046Z" fill="white"/>
<path d="M76.5991 109.366C76.5991 109.366 78.404 109.747 80.166 110.289C81.9414 110.788 83.7131 111.284 83.7131 111.284L84.9226 107.112C84.9226 107.112 78.7585 105.273 72.4493 103.964C69.3243 103.198 66.1184 102.809 63.7554 102.333C61.382 101.868 59.7785 101.729 59.7785 101.729L59.1778 106.03C59.1778 106.03 61.0141 106.218 62.8221 106.581C64.6363 106.901 66.4539 107.218 66.4539 107.218C66.4539 107.218 67.0944 107.329 68.0534 107.5C69.0153 107.639 70.283 107.904 71.5444 108.211C74.0736 108.79 76.6026 109.362 76.6026 109.362L76.5991 109.366Z" fill="#3F3F3F"/>
<path d="M84.9225 107.112L86.1357 102.944C86.1357 102.944 84.2742 102.418 82.4092 101.895C80.5576 101.33 78.6631 100.926 78.6631 100.926C78.6631 100.926 76.0086 100.325 73.354 99.7166C72.0317 99.3927 70.6996 99.1154 69.6877 98.9701C68.6821 98.789 68.013 98.6718 68.013 98.6718C68.013 98.6718 66.1022 98.3358 64.1985 97.9998C62.3011 97.6208 60.372 97.4279 60.3755 97.4242L59.7784 101.729C59.7784 101.729 61.3856 101.872 63.7554 102.333C66.1183 102.809 69.3205 103.195 72.4492 103.964C78.7548 105.269 84.9225 107.112 84.9225 107.112Z" fill="white"/>
<path d="M123.103 61.0451L127.592 49.9253C127.592 49.9253 124.177 48.5887 120.758 47.2629C119.06 46.5659 117.299 46.0449 116.002 45.585C114.698 45.1467 113.833 44.8556 113.833 44.8556L110.012 56.2244C110.012 56.2244 110.838 56.4986 112.077 56.917C113.312 57.3532 114.988 57.8476 116.599 58.5109C119.853 59.7762 123.106 61.0486 123.106 61.0486L123.103 61.0451Z" fill="#3F3F3F"/>
<path d="M107.237 64.4514L93.5149 105.262C93.5149 105.262 94.1612 105.476 95.1271 105.801C96.0863 106.14 97.3988 106.503 98.658 107.032C101.193 108.028 103.724 109.02 103.724 109.02L119.847 69.0973C119.847 69.0973 116.712 67.8757 113.588 66.6575C112.03 66.018 110.419 65.5436 109.23 65.1242C108.035 64.7191 107.234 64.4551 107.234 64.4551L107.237 64.4514Z" fill="#3F3F3F"/>
<path d="M90.7442 113.493L86.9265 124.858C86.9265 124.858 87.4974 125.049 88.3521 125.337C89.2071 125.639 90.376 125.955 91.4879 126.434C93.735 127.315 95.9821 128.196 95.9821 128.196L100.472 117.076C100.472 117.076 98.0594 116.134 95.6397 115.186C94.4417 114.681 93.1901 114.334 92.2776 114.012C91.3547 113.701 90.7372 113.5 90.7372 113.5L90.7442 113.493Z" fill="#3F3F3F"/>
<path d="M130.419 68.9118L132.214 64.9586C132.214 64.9586 129.953 63.946 127.685 62.9336C126.562 62.4093 125.414 61.9319 124.545 61.6088C123.678 61.2678 123.099 61.0416 123.099 61.0416C123.099 61.0416 119.849 59.7727 116.592 58.5039C114.981 57.8407 113.301 57.3428 112.069 56.91C110.83 56.4917 110.005 56.2175 110.005 56.2175C110.005 56.2175 107.653 55.4314 105.297 54.649C102.946 53.8772 100.54 53.2492 100.54 53.2492L99.3305 57.4212C99.3305 57.4212 99.8291 57.5635 100.704 57.8081C101.576 58.0634 102.834 58.3745 104.303 58.8947C107.241 59.8996 111.21 61.1314 115.095 62.5824C118.946 64.1126 122.845 65.542 125.692 66.8019C128.525 68.0765 130.419 68.9189 130.419 68.9189L130.419 68.9118Z" fill="#3F3F3F"/>
<path d="M119.85 69.0937C119.85 69.0937 120.404 69.3097 121.238 69.6407C122.076 69.9538 123.184 70.4143 124.26 70.9147C126.442 71.8934 128.627 72.8684 128.627 72.8684L130.419 68.9118C130.419 68.9118 128.525 68.0693 125.692 66.7948C122.845 65.5349 118.95 64.109 115.095 62.5753C111.207 61.1279 107.241 59.8925 104.303 58.8876C102.827 58.3675 101.572 58.06 100.704 57.801C99.829 57.5564 99.3304 57.4141 99.3304 57.4141L98.1209 61.5861C98.1209 61.5861 100.433 62.1876 102.702 62.9292C104.968 63.6886 107.234 64.4409 107.234 64.4409C107.234 64.4409 108.031 64.7086 109.23 65.11C110.419 65.5294 112.03 66.0038 113.587 66.6433C116.715 67.865 119.847 69.0831 119.847 69.0831L119.85 69.0937Z" fill="white"/>
<path d="M100.475 117.072C100.475 117.072 100.907 117.241 101.547 117.491C102.197 117.729 103.049 118.078 103.881 118.477C105.563 119.227 107.244 119.985 107.244 119.985L109.035 116.029C109.035 116.029 107.57 115.366 105.367 114.381C103.164 113.395 100.132 112.314 97.147 111.11C94.1389 109.982 91.0529 109.045 88.7791 108.25C87.6436 107.833 86.6585 107.609 85.984 107.41C85.3062 107.221 84.9187 107.109 84.9187 107.109L83.7092 111.281C83.7092 111.281 85.4977 111.73 87.25 112.311C88.9952 112.9 90.7405 113.49 90.7405 113.49C90.7405 113.49 91.3508 113.69 92.2808 114.001C93.1898 114.327 94.4449 114.67 95.6429 115.175C98.0555 116.124 100.475 117.065 100.475 117.065L100.475 117.072Z" fill="#3F3F3F"/>
<path d="M109.039 116.032L110.838 112.076C110.838 112.076 109.07 111.284 107.306 110.488C106.427 110.073 105.539 109.704 104.856 109.455C104.184 109.195 103.727 109.016 103.727 109.016C103.727 109.016 101.196 108.024 98.6615 107.028C97.4058 106.496 96.0898 106.136 95.1306 105.797C94.161 105.469 93.5184 105.259 93.5184 105.259C93.5184 105.259 91.6868 104.636 89.852 104.024C88.0136 103.416 86.139 102.94 86.139 102.94L84.9258 107.108C84.9258 107.108 85.3133 107.221 85.9911 107.409C86.6656 107.608 87.6472 107.836 88.7862 108.25C91.0636 109.048 94.1425 109.986 97.1542 111.11C100.139 112.314 103.171 113.395 105.374 114.38C107.581 115.369 109.043 116.029 109.043 116.029L109.039 116.032Z" fill="white"/>
<path d="M153.416 75.8961L159.452 65.5373C159.452 65.5373 156.264 63.7216 153.088 61.9093C149.856 60.1766 146.57 58.5449 146.57 58.5449L141.166 69.2498C141.166 69.2498 144.29 70.8031 147.363 72.4466C150.395 74.1766 153.423 75.896 153.423 75.896L153.416 75.8961Z" fill="#3F3F3F"/>
<path d="M137.24 77.0031L117.812 115.43C117.812 115.43 120.235 116.674 122.657 117.919C125.018 119.271 127.379 120.624 127.379 120.624L149.04 83.4133C149.04 83.4133 146.127 81.7485 143.203 80.0874C140.242 78.502 137.23 77.0069 137.23 77.0069L137.24 77.0031Z" fill="#3F3F3F"/>
<path d="M113.894 123.176L108.486 133.877C108.486 133.877 110.638 134.981 112.783 136.079C114.884 137.28 116.981 138.485 116.981 138.485L123.017 128.126C123.017 128.126 120.764 126.836 118.512 125.545C116.204 124.362 113.894 123.176 113.894 123.176Z" fill="#3F3F3F"/>
<path d="M159.531 84.7337L161.871 81.0716C161.871 81.0716 159.781 79.7415 157.688 78.4151C155.588 77.0889 153.413 75.8998 153.413 75.8998C153.413 75.8998 150.388 74.1768 147.352 72.4504C144.279 70.8069 141.155 69.2536 141.155 69.2536C141.155 69.2536 138.942 68.1331 136.729 67.0125C134.468 65.9856 132.21 64.9622 132.21 64.9622L130.415 68.9154C130.415 68.9154 132.305 69.7757 135.132 71.0718C137.9 72.4867 141.619 74.3228 145.276 76.2672C148.875 78.3305 152.502 80.3432 155.153 81.9532C157.774 83.6245 159.527 84.7373 159.527 84.7373L159.531 84.7337Z" fill="#3F3F3F"/>
<path d="M149.047 83.4061C149.047 83.4061 151.143 84.5471 153.164 85.8251C155.181 87.1069 157.194 88.3851 157.194 88.3851L159.534 84.7301C159.534 84.7301 157.785 83.6207 155.16 81.946C152.512 80.3324 148.882 78.3232 145.283 76.2599C141.623 74.3192 137.907 72.4795 135.139 71.0645C132.309 69.7721 130.422 68.9081 130.422 68.9081L128.63 72.8648C128.63 72.8648 130.808 73.8471 132.979 74.8367C135.106 75.9165 137.24 76.996 137.24 76.996C137.24 76.996 140.249 78.4877 143.214 80.0765C146.134 81.7412 149.051 83.4024 149.051 83.4024L149.047 83.4061Z" fill="white"/>
<path d="M123.017 128.126C123.017 128.126 124.643 128.993 126.198 129.985C127.756 130.981 129.314 131.977 129.314 131.977L131.647 128.315C131.647 128.315 130.291 127.45 128.256 126.151C126.19 124.892 123.361 123.35 120.581 121.728C117.719 120.258 114.853 118.792 112.708 117.695C110.508 116.699 109.039 116.032 109.039 116.032L107.247 119.989C107.247 119.989 108.929 120.747 110.61 121.498C112.254 122.339 113.894 123.176 113.894 123.176C113.894 123.176 116.201 124.359 118.512 125.545C120.764 126.836 123.017 128.126 123.017 128.126Z" fill="#3F3F3F"/>
<path d="M131.647 128.315L133.994 124.66C133.994 124.66 132.364 123.615 130.726 122.571C129.099 121.531 127.386 120.616 127.386 120.616C127.386 120.616 125.025 119.264 122.664 117.911C120.238 116.663 117.819 115.423 117.819 115.423C117.819 115.423 116.096 114.541 114.369 113.663C112.609 112.871 110.845 112.075 110.845 112.075L109.046 116.032C109.046 116.032 110.515 116.699 112.715 117.695C114.86 118.792 117.726 120.258 120.588 121.728C123.372 123.346 126.2 124.895 128.263 126.151C130.298 127.45 131.654 128.315 131.654 128.315L131.647 128.315Z" fill="white"/>
<path d="M181.283 94.907L188.73 85.5011C188.73 85.5011 185.843 83.2546 182.953 81.0047C179.969 78.8816 176.986 76.7585 176.986 76.7585L170.104 86.5798C170.104 86.5798 172.943 88.5991 175.782 90.6185C178.531 92.761 181.28 94.9035 181.28 94.9035L181.283 94.907Z" fill="#3F3F3F"/>
<path d="M165.124 93.7003L140.426 128.967C140.426 128.967 142.649 130.536 144.872 132.113C147.023 133.795 149.166 135.476 149.166 135.476L175.897 101.723C175.897 101.723 173.246 99.653 170.602 97.5901C167.861 95.6435 165.128 93.7038 165.128 93.7038L165.124 93.7003Z" fill="#3F3F3F"/>
<path d="M135.442 136.077L128.564 145.902C128.564 145.902 130.538 147.302 132.511 148.695C134.419 150.193 136.326 151.684 136.326 151.684L143.769 142.282C143.769 142.282 141.724 140.68 139.678 139.078C137.557 137.577 135.442 136.077 135.442 136.077Z" fill="#3F3F3F"/>
<path d="M186.081 104.515L188.914 101.22C188.914 101.22 187.04 99.607 185.158 97.9944C183.252 96.4073 181.283 94.907 181.28 94.9107C181.28 94.9107 178.534 92.7716 175.782 90.6256C172.943 88.6063 170.104 86.5869 170.104 86.5869C170.104 86.5869 168.073 85.1593 166.05 83.7459C163.96 82.4087 161.871 81.0787 161.871 81.0787L159.531 84.7408C159.531 84.7408 161.277 85.8538 163.894 87.5287C166.436 89.3265 169.811 91.719 173.192 94.1186C176.453 96.674 179.71 99.2331 182.154 101.147C184.512 103.173 186.085 104.526 186.085 104.526L186.081 104.515Z" fill="#3F3F3F"/>
<path d="M175.893 101.719C175.893 101.719 177.793 103.16 179.626 104.692C181.436 106.249 183.245 107.807 183.245 107.807L186.085 104.518C186.085 104.518 184.512 103.166 182.154 101.14C179.71 99.226 176.453 96.6669 173.192 94.1114C169.81 91.7119 166.432 89.323 163.894 87.5216C161.277 85.8467 159.531 84.7337 159.531 84.7337L157.191 88.3887C157.191 88.3887 159.204 89.674 161.214 90.9559C163.169 92.3317 165.124 93.7003 165.124 93.7003C165.124 93.7003 167.861 95.6435 170.599 97.5867C173.246 99.653 175.893 101.719 175.893 101.719Z" fill="white"/>
<path d="M143.769 142.282C143.769 142.282 145.255 143.39 146.668 144.574C148.066 145.78 149.462 146.99 149.462 146.99L152.298 143.699C152.298 143.699 151.081 142.645 149.253 141.064C147.346 139.573 144.814 137.582 142.275 135.592C139.647 133.725 137.021 131.861 135.048 130.468C133.013 129.169 131.647 128.308 131.647 128.308L129.314 131.97C129.314 131.97 130.865 132.951 132.426 133.944C133.936 135.012 135.446 136.073 135.446 136.073C135.446 136.073 137.56 137.574 139.682 139.074C141.727 140.676 143.773 142.278 143.773 142.278L143.769 142.282Z" fill="#3F3F3F"/>
<path d="M152.295 143.702L155.131 140.411C155.131 140.411 153.663 139.145 152.199 137.876C150.71 136.633 149.159 135.469 149.163 135.473C149.163 135.473 147.016 133.795 144.869 132.11C142.646 130.533 140.423 128.964 140.423 128.964C140.423 128.964 138.837 127.843 137.258 126.723C135.621 125.686 133.987 124.653 133.987 124.653L131.64 128.308C131.64 128.308 133.002 129.173 135.041 130.468C137.014 131.861 139.643 133.728 142.268 135.592C144.803 137.579 147.339 139.573 149.246 141.064C151.07 142.642 152.291 143.699 152.291 143.699L152.295 143.702Z" fill="white"/>
<path d="M206.163 117.666L214.869 109.416C214.869 109.416 212.33 106.777 209.788 104.134C207.141 101.615 204.487 99.0961 204.487 99.0961L196.285 107.841C196.285 107.841 198.815 110.242 201.338 112.642C203.756 115.152 206.171 117.666 206.171 117.666L206.163 117.666Z" fill="#3F3F3F"/>
<path d="M190.343 114.174L160.898 145.588C160.898 145.588 162.878 147.462 164.855 149.34C166.741 151.306 168.627 153.278 168.627 153.278L199.857 123.643C199.857 123.643 197.534 121.223 195.206 118.801C192.771 116.491 190.339 114.178 190.339 114.178L190.343 114.174Z" fill="#3F3F3F"/>
<path d="M154.956 151.928L146.754 160.673C146.754 160.673 148.519 162.335 150.281 164C151.955 165.749 153.63 167.505 153.63 167.505L162.328 159.255C162.328 159.255 160.526 157.377 158.731 155.499C156.842 153.711 154.956 151.928 154.956 151.928Z" fill="#3F3F3F"/>
<path d="M209.556 127.846L212.826 124.991C212.826 124.991 211.195 123.123 209.564 121.263C207.864 119.461 206.16 117.662 206.16 117.662C206.16 117.662 203.745 115.149 201.327 112.639C198.804 110.239 196.274 107.838 196.274 107.838C196.274 107.838 194.465 106.149 192.657 104.46C190.782 102.84 188.907 101.22 188.907 101.22L186.074 104.515C186.074 104.515 187.64 105.867 189.991 107.901C192.248 110.033 195.258 112.879 198.265 115.722C201.128 118.714 203.992 121.713 206.134 123.951C208.185 126.29 209.545 127.85 209.545 127.85L209.556 127.846Z" fill="#3F3F3F"/>
<path d="M199.864 123.642C199.864 123.642 201.503 125.378 203.145 127.11C204.717 128.908 206.286 130.709 206.286 130.709L209.559 127.85C209.559 127.85 208.199 126.29 206.148 123.95C204.007 121.712 201.139 118.717 198.279 115.721C195.269 112.875 192.259 110.029 190.005 107.901C187.655 105.867 186.089 104.515 186.089 104.515L183.249 107.803C183.249 107.803 185.058 109.36 186.864 110.921C188.603 112.551 190.346 114.177 190.346 114.177C190.346 114.177 192.782 116.494 195.213 118.801C197.541 121.223 199.864 123.642 199.864 123.642Z" fill="white"/>
<path d="M162.328 159.255C162.328 159.255 163.601 160.592 164.867 161.93C166.081 163.329 167.292 164.725 167.292 164.725L170.562 161.869C170.562 161.869 169.502 160.652 167.915 158.826C166.247 157.084 164.018 154.755 161.786 152.423C159.445 150.211 157.105 147.992 155.347 146.337C153.509 144.759 152.288 143.71 152.288 143.71L149.452 147.001C149.452 147.001 150.854 148.204 152.252 149.403C153.599 150.664 154.942 151.935 154.942 151.935C154.942 151.935 156.828 153.719 158.717 155.506C160.512 157.384 162.314 159.263 162.314 159.263L162.328 159.255Z" fill="#3F3F3F"/>
<path d="M170.569 161.862L173.843 159.002C173.843 159.002 172.566 157.537 171.298 156.078C169.962 154.675 168.627 153.271 168.627 153.271C168.627 153.271 166.744 151.302 164.855 149.333C162.875 147.459 160.898 145.581 160.898 145.581C160.898 145.581 159.482 144.254 158.074 142.927C156.606 141.669 155.131 140.404 155.131 140.404L152.295 143.695C152.295 143.695 153.515 144.745 155.354 146.323C157.108 147.981 159.449 150.193 161.793 152.409C164.025 154.741 166.254 157.069 167.921 158.812C169.508 160.637 170.569 161.855 170.569 161.855L170.569 161.862Z" fill="white"/>
<path d="M227.576 143.712L237.358 136.778C237.358 136.778 235.215 133.806 233.075 130.838C230.809 127.964 228.54 125.088 228.54 125.088L219.184 132.589C219.184 132.589 221.343 135.326 223.499 138.059C225.532 140.884 227.573 143.715 227.573 143.715L227.576 143.712Z" fill="#3F3F3F"/>
<path d="M212.409 138.021L178.81 164.942C178.81 164.942 180.5 167.083 182.197 169.216C183.789 171.431 185.374 173.645 185.374 173.645L220.49 148.733C220.49 148.733 218.53 146.013 216.567 143.283C214.488 140.652 212.413 138.017 212.413 138.017L212.409 138.021Z" fill="#3F3F3F"/>
<path d="M172.035 170.38L162.679 177.882C162.679 177.882 164.186 179.777 165.692 181.673C167.097 183.645 168.513 185.614 168.513 185.614L178.295 178.673C178.295 178.673 176.776 176.564 175.261 174.452C173.656 172.419 172.035 170.38 172.035 170.38Z" fill="#3F3F3F"/>
<path d="M229.494 154.281L233.138 151.916C233.138 151.916 231.792 149.832 230.445 147.755C229.007 145.737 227.576 143.712 227.576 143.712C227.576 143.712 225.536 140.88 223.503 138.055C221.343 135.319 219.187 132.586 219.187 132.586C219.187 132.586 217.676 130.623 216.076 128.73C214.456 126.858 212.826 124.991 212.826 124.991L209.555 127.846C209.555 127.846 210.912 129.41 212.953 131.753C214.884 134.188 217.461 137.429 220.038 140.676C222.45 144.038 224.866 147.403 226.679 149.934C228.372 152.538 229.497 154.277 229.497 154.277L229.494 154.281Z" fill="#3F3F3F"/>
<path d="M220.49 148.74C220.49 148.74 221.869 150.688 223.256 152.636C224.551 154.636 225.846 156.642 225.846 156.642L229.494 154.281C229.494 154.281 228.369 152.541 226.675 149.937C224.866 147.411 222.451 144.045 220.035 140.68C217.458 137.432 214.881 134.192 212.949 131.757C210.909 129.413 209.552 127.85 209.552 127.85L206.278 130.709C206.278 130.709 207.847 132.51 209.412 134.308C210.949 136.128 212.402 138.021 212.406 138.024C212.406 138.024 214.485 140.656 216.56 143.291C218.523 146.021 220.483 148.74 220.483 148.74L220.49 148.74Z" fill="white"/>
<path d="M178.291 178.67C178.291 178.67 179.361 180.175 180.439 181.674C181.435 183.227 182.431 184.781 182.431 184.781L186.08 182.42C186.08 182.42 185.209 181.07 183.899 179.035C182.494 177.07 180.612 174.452 178.736 171.834C176.728 169.312 174.726 166.789 173.227 164.894C171.633 163.075 170.572 161.858 170.572 161.858L167.302 164.713C167.302 164.713 168.516 166.105 169.734 167.494C170.93 168.904 172.039 170.37 172.039 170.37C172.039 170.37 173.655 172.405 175.265 174.441C176.78 176.553 178.298 178.662 178.298 178.662L178.291 178.67Z" fill="#3F3F3F"/>
<path d="M186.076 182.423L189.721 180.066C189.721 180.066 188.676 178.438 187.625 176.804C186.499 175.232 185.374 173.652 185.374 173.652C185.374 173.652 183.789 171.438 182.197 169.224C180.503 167.086 178.81 164.949 178.81 164.949C178.81 164.949 177.635 163.407 176.387 161.926C175.115 160.471 173.842 159.009 173.842 159.009L170.569 161.869C170.569 161.869 171.626 163.082 173.223 164.904C174.723 166.8 176.728 169.319 178.733 171.845C180.612 174.466 182.494 177.077 183.895 179.046C185.202 181.077 186.076 182.43 186.076 182.43L186.076 182.423Z" fill="white"/>
<path d="M245.083 172.556L255.756 167.082C255.756 167.082 254.101 163.804 252.352 160.588C250.518 157.416 248.688 154.241 248.688 154.241L238.356 160.335C238.356 160.335 240.101 163.352 241.843 166.372C243.507 169.436 245.079 172.553 245.079 172.553L245.083 172.556Z" fill="#3F3F3F"/>
<path d="M230.879 164.759L193.804 186.638C193.804 186.638 195.167 188.996 196.534 191.351C197.788 193.765 199.049 196.179 199.049 196.179L237.36 176.522C237.36 176.522 235.847 173.525 234.243 170.573C232.561 167.666 230.879 164.759 230.879 164.759Z" fill="#3F3F3F"/>
<path d="M186.319 191.055L175.987 197.148C175.987 197.148 177.202 199.239 178.417 201.33C179.534 203.472 180.647 205.619 180.647 205.619L191.316 200.148C191.316 200.148 190.118 197.851 188.923 195.549C187.616 193.3 186.315 191.058 186.315 191.058L186.319 191.055Z" fill="#3F3F3F"/>
<path d="M245.483 183.298L249.428 181.479C249.428 181.479 248.391 179.224 247.351 176.973C246.219 174.766 245.083 172.563 245.083 172.563C245.083 172.563 243.511 169.447 241.847 166.382C240.105 163.362 238.36 160.346 238.36 160.346C238.36 160.346 237.161 158.173 235.821 156.089C234.478 154.001 233.135 151.92 233.135 151.92L229.491 154.285C229.491 154.285 230.612 156.028 232.295 158.643C233.925 161.284 235.954 164.901 238.04 168.487C240.005 172.133 241.865 175.838 243.298 178.605C244.608 181.428 245.472 183.309 245.472 183.309L245.483 183.298Z" fill="#3F3F3F"/>
<path d="M237.357 176.525C237.357 176.525 238.448 178.651 239.539 180.776C240.535 182.943 241.534 185.113 241.534 185.113L245.479 183.302C245.479 183.302 244.611 181.417 243.305 178.598C241.872 175.831 240.009 172.129 238.046 168.48C235.965 164.897 233.928 161.281 232.302 158.636C230.616 156.025 229.497 154.278 229.497 154.278L225.849 156.639C225.849 156.639 227.145 158.646 228.436 160.649C229.728 162.66 230.882 164.748 230.879 164.752C230.879 164.752 232.557 167.656 234.243 170.566C235.844 173.522 237.36 176.515 237.36 176.515L237.357 176.525Z" fill="white"/>
<path d="M191.32 200.145C191.32 200.145 192.168 201.78 193.021 203.426C193.784 205.099 194.552 206.782 194.552 206.782L198.497 204.963C198.497 204.963 197.823 203.495 196.813 201.307C195.7 199.168 194.215 196.31 192.731 193.459C191.094 190.686 189.532 187.865 188.264 185.808C186.954 183.78 186.076 182.43 186.076 182.43L182.428 184.792C182.428 184.792 183.435 186.341 184.435 187.891C185.442 189.441 186.319 191.062 186.319 191.062C186.319 191.062 187.619 193.304 188.927 195.553C190.122 197.854 191.32 200.152 191.32 200.152L191.32 200.145Z" fill="#3F3F3F"/>
<path d="M198.494 204.96L202.439 203.141C202.439 203.141 201.637 201.383 200.832 199.622C199.939 197.902 199.05 196.179 199.05 196.179C199.05 196.179 197.788 193.765 196.534 191.351C195.167 188.996 193.804 186.638 193.804 186.638C193.804 186.638 192.879 184.937 191.827 183.309C190.776 181.682 189.724 180.062 189.724 180.062L186.08 182.42C186.08 182.42 186.954 183.773 188.267 185.797C189.535 187.854 191.098 190.675 192.734 193.448C194.222 196.303 195.707 199.161 196.816 201.297C197.823 203.488 198.501 204.952 198.501 204.952L198.494 204.96Z" fill="white"/>
<path d="M258.305 203.633L269.647 199.742C269.647 199.742 269.35 198.879 268.904 197.573C268.441 196.279 267.903 194.522 267.2 192.831C265.845 189.421 264.491 186.011 264.491 186.011L253.395 190.571C253.395 190.571 254.689 193.811 255.975 197.058C256.652 198.669 257.152 200.34 257.596 201.574C258.016 202.813 258.301 203.637 258.301 203.637L258.305 203.633Z" fill="#3F3F3F"/>
<path d="M245.365 193.866L205.539 210.23C205.539 210.23 206.546 212.757 207.549 215.287C208.09 216.537 208.465 217.851 208.81 218.81C209.138 219.779 209.362 220.419 209.362 220.419L250.086 206.455C250.086 206.455 249.819 205.662 249.412 204.47C248.983 203.278 248.499 201.671 247.848 200.12C246.603 196.997 245.365 193.873 245.365 193.873L245.365 193.866Z" fill="#3F3F3F"/>
<path d="M197.505 213.529L186.409 218.082C186.409 218.082 187.303 220.326 188.197 222.57C188.681 223.675 189.003 224.847 189.31 225.693C189.6 226.549 189.794 227.118 189.794 227.118L201.137 223.234C201.137 223.234 200.931 222.618 200.618 221.698C200.288 220.782 199.936 219.532 199.418 218.338C198.46 215.928 197.502 213.526 197.502 213.526L197.505 213.529Z" fill="#3F3F3F"/>
<path d="M257.163 214.316L261.324 213.081C261.324 213.081 260.68 210.678 259.898 208.332C259.098 205.983 258.301 203.63 258.301 203.63C258.301 203.63 258.016 202.806 257.596 201.567C257.152 200.333 256.645 198.662 255.975 197.051C254.689 193.804 253.395 190.563 253.395 190.563C253.395 190.563 253.168 189.991 252.825 189.125C252.489 188.252 252.007 187.115 251.484 185.993C250.454 183.731 249.424 181.476 249.424 181.476L245.479 183.295C245.479 183.295 246.337 185.183 247.625 188.006C248.903 190.84 250.357 194.736 251.906 198.577C253.381 202.458 254.634 206.412 255.66 209.348C256.184 210.813 256.504 212.074 256.766 212.938C257.017 213.813 257.163 214.309 257.163 214.309L257.163 214.316Z" fill="#3F3F3F"/>
<path d="M250.086 206.448C250.086 206.448 250.856 208.712 251.629 210.973C252.388 213.241 253.005 215.548 253.005 215.548L257.167 214.313C257.167 214.313 257.02 213.817 256.769 212.942C256.508 212.078 256.188 210.816 255.664 209.352C254.637 206.416 253.381 202.458 251.91 198.58C250.36 194.74 248.91 190.847 247.628 188.009C246.337 185.183 245.483 183.298 245.483 183.298L241.537 185.11C241.537 185.11 242.526 187.284 243.518 189.461C244.027 190.541 244.493 191.643 244.814 192.48C245.146 193.307 245.369 193.862 245.369 193.862C245.369 193.862 246.606 196.986 247.851 200.109C248.502 201.66 248.983 203.271 249.415 204.459C249.823 205.652 250.09 206.444 250.09 206.444L250.086 206.448Z" fill="white"/>
<path d="M201.14 223.237C201.14 223.237 201.742 224.978 202.34 226.722C202.93 228.466 203.394 230.256 203.394 230.256L207.555 229.021C207.555 229.021 207.443 228.635 207.25 227.954C207.05 227.282 206.818 226.299 206.394 225.168C205.581 222.897 204.63 219.824 203.48 216.82C202.257 213.842 201.156 210.815 200.16 208.62C199.16 206.421 198.49 204.963 198.49 204.963L194.545 206.782C194.545 206.782 195.309 208.455 196.076 210.131C196.476 210.96 196.833 211.811 197.076 212.462C197.332 213.105 197.502 213.533 197.502 213.533C197.502 213.533 198.46 215.935 199.418 218.345C199.933 219.535 200.284 220.786 200.618 221.705C200.931 222.625 201.137 223.241 201.137 223.241L201.14 223.237Z" fill="#3F3F3F"/>
<path d="M207.558 229.017L211.719 227.782C211.719 227.782 211.236 225.91 210.615 224.074C209.987 222.245 209.362 220.412 209.362 220.412C209.362 220.412 209.141 219.768 208.81 218.802C208.461 217.848 208.086 216.533 207.549 215.28C206.546 212.75 205.538 210.223 205.538 210.223C205.538 210.223 205.357 209.771 205.093 209.099C204.843 208.421 204.463 207.527 204.045 206.652C203.244 204.895 202.439 203.134 202.439 203.134L198.493 204.953C198.493 204.953 199.164 206.41 200.163 208.609C201.163 210.8 202.26 213.831 203.484 216.809C204.626 219.814 205.581 222.89 206.397 225.157C206.818 226.292 207.053 227.271 207.253 227.944C207.45 228.62 207.558 229.01 207.558 229.01L207.558 229.017Z" fill="white"/>
</svg>
