<svg width="111" height="139" viewBox="0 0 111 139" fill="none" xmlns="http://www.w3.org/2000/svg">
<path d="M47.7977 43.3271C21.6326 43.3271 0.421523 64.5381 0.421521 90.7032C0.421518 116.868 21.6325 138.079 47.7977 138.079C73.9628 138.079 95.1738 116.868 95.1738 90.7033C95.1738 64.5381 73.9628 43.3271 47.7977 43.3271Z" fill="#E98943"/>
<path d="M93.8415 6.98342C96.1331 3.5003 100.816 2.53409 104.299 4.82571C107.782 7.11734 108.748 11.8002 106.457 15.2834C104.165 18.7665 99.4823 19.7327 95.9992 17.4411C92.5161 15.1495 91.5499 10.4665 93.8415 6.98342Z" fill="#E98943"/>
<path d="M46.2678 89.699L49.3264 91.7114L101.678 12.1396L98.6198 10.1272L46.2678 89.699Z" fill="#E98943"/>
<g clip-path="url(#clip0_2293_6)">
<path d="M44.3502 58C43.743 57.9737 43.1424 58.1511 42.6276 58.4797L16.2738 75.3096C15.4356 75.8419 14.9538 76.7554 15 77.7149L16.5048 107.984C16.5576 109.101 17.3166 110.067 18.4188 110.442L55.5966 122.862C55.9068 122.967 56.217 123.007 56.5272 123.007C57.2928 123.007 58.032 122.711 58.5864 122.172L80.0364 101.268C80.5578 100.762 80.8482 100.098 80.8482 99.3815L80.9934 69.2572C80.9934 68.0086 80.109 66.9045 78.8418 66.5891L44.9508 58.0985C44.7528 58.046 44.5548 58.0131 44.3502 58ZM44.5152 61.6472C47.6106 62.4227 50.706 63.2047 53.8014 63.9801L34.1466 79.5681C30.1602 78.3654 26.1936 77.1694 22.128 75.9668L44.5218 61.6472H44.5152ZM63.0216 66.2934C67.173 67.3317 71.3178 68.3766 75.4692 69.4149L55.6032 85.982C51.5244 84.7794 47.538 83.5899 43.5384 82.3807L63.0216 66.2934ZM77.3106 73.1081L77.1918 98.8229L58.4016 117.131L58.065 89.1495L77.3106 73.1081ZM18.8082 79.0949L31.995 83.051V92.731L34.2192 92.7047L35.8956 93.8022L38.4828 93.5131L41.6442 95.3728L41.499 85.8834L53.9466 89.6029L54.2832 118.42L20.2008 107.057L18.8148 79.1015L18.8082 79.0949ZM72.5718 85.9622L70.869 91.0618L74.268 87.822L72.5652 85.9622H72.5718ZM73.4826 89.3006L71.661 91.0421V97.7189L73.4826 95.9774V89.3006ZM68.2422 90.1352L66.5394 95.2348L69.9384 91.9687L68.2356 90.1352H68.2422ZM69.1266 93.4736L67.3314 95.1888V101.866L69.1266 100.15V93.4736ZM74.8686 95.6685L65.919 104.271V106.223L74.8686 97.6203V95.6685Z" fill="#F1F0E6"/>
</g>
<defs>
<clipPath id="clip0_2293_6">
<rect width="66" height="65" fill="white" transform="translate(15 58)"/>
</clipPath>
</defs>
</svg>
