<svg width="57" height="44" viewBox="0 0 57 44" fill="none" xmlns="http://www.w3.org/2000/svg">
<g id="_&#195;&#131;&#194;&#171;&#195;&#131;&#194;&#174;&#195;&#131;&#194;&#169;_1" clip-path="url(#clip0_1115_6956)">
<path id="Vector" d="M55.4434 13.3572H53.4565C52.5932 13.3572 51.8974 14.0627 51.8974 14.9314L50.793 16.1487L46.3184 5.50359C45.6762 3.97585 44.4018 2.81017 42.8318 2.31868C39.8066 1.37463 34.3959 0 28.5004 0C22.6049 0 17.1925 1.37463 14.169 2.31953C12.599 2.81101 11.3246 3.9767 10.6824 5.50444L6.20783 16.1496L5.10342 14.9323C5.10342 14.0635 4.40677 13.358 3.54434 13.358H1.5574C0.697481 13.358 0 14.0627 0 14.9323V15.4407C0 16.3095 0.697481 17.015 1.5574 17.015H2.70117C3.56862 17.015 3.94625 16.3585 4.12544 16.2147L5.02303 17.1207C1.67211 19.9241 1.122 24.5166 1.122 29.2707V34.1407C1.122 35.4781 1.80441 36.6734 2.85858 37.3629V41.8074C2.85858 43.0196 4.03835 44.0008 5.49277 44.0008H8.16965C9.6249 44.0008 10.8038 43.0196 10.8038 41.8074V38.9938C12.2499 39.1824 13.7981 39.3085 15.6435 39.3085H41.3582C43.2036 39.3085 44.751 39.1824 46.1978 38.9938V41.8074C46.1978 43.0196 47.3776 44.0008 48.832 44.0008H51.5089C52.9642 44.0008 54.1431 43.0196 54.1431 41.8074V37.3629C55.1973 36.6743 55.8797 35.4781 55.8797 34.1407V29.2707C55.8797 24.5183 55.3304 19.9249 51.9795 17.1207L52.8762 16.2147C53.0554 16.3585 53.4331 17.015 54.3005 17.015H55.4443C56.3042 17.015 57.0017 16.3095 57.0017 15.4407V14.9323C57.0017 14.0627 56.3042 13.358 55.4443 13.358L55.4434 13.3572ZM10.8985 28.0687L4.53739 27.0899C4.15139 27.0316 3.87257 26.6814 3.90104 26.2872C4.00151 24.8575 4.39672 23.9532 4.6655 23.4897C4.80366 23.2511 5.06071 23.1073 5.33535 23.1175C9.30086 23.2621 10.9989 25.5157 11.6872 26.9901C11.9443 27.5425 11.4938 28.16 10.8968 28.0687H10.8985ZM38.2693 31.7222L37.0443 32.9099C36.6089 33.332 35.9483 33.5773 35.2508 33.5773H21.7492C21.0517 33.5773 20.3911 33.332 19.9557 32.9099L18.7307 31.7222C18.1228 31.1335 18.06 30.3121 18.5733 29.6717C18.9919 29.1481 19.7296 28.8309 20.5225 28.8309H36.475C37.2696 28.8309 38.0073 29.1489 38.4259 29.6717C38.94 30.3121 38.8764 31.1343 38.2685 31.7222H38.2693ZM28.4996 13.929C22.7506 13.929 17.4529 14.4839 13.5912 15.0389C11.6604 15.3172 10.0896 15.5938 9.0011 15.8019L12.4734 7.54143C13.1349 5.97055 14.4629 4.78117 16.0898 4.31845C19.0773 3.46914 23.6398 2.46418 28.4996 2.46418C33.3593 2.46418 37.9219 3.46914 40.9094 4.31845C42.5363 4.78117 43.8643 5.97055 44.5257 7.54228L47.9981 15.8019C44.7317 15.1785 37.1222 13.929 28.4996 13.929ZM52.3337 23.4897C52.6024 23.9532 52.9977 24.8584 53.0981 26.2872C53.1258 26.6814 52.8478 27.0307 52.4618 27.0899L46.0999 28.0687C45.5037 28.16 45.0532 27.5425 45.3111 26.9901C46.0002 25.5157 47.6975 23.263 51.663 23.1175C51.9376 23.1065 52.1947 23.2503 52.3328 23.4897H52.3337Z" fill="#9E280E"/>
</g>
<defs>
<clipPath id="clip0_1115_6956">
<rect width="57" height="44" fill="white"/>
</clipPath>
</defs>
</svg>
