<svg width="134" height="170" viewBox="0 0 134 170" fill="none" xmlns="http://www.w3.org/2000/svg">
<g id="Group 206">
<path id="Vector" d="M33.5 69.2977C14.9985 87.7993 14.9985 117.796 33.5 136.298C52.0015 154.799 81.9985 154.799 100.5 136.298C119.002 117.796 119.002 87.7993 100.5 69.2977C81.9985 50.7962 52.0016 50.7962 33.5 69.2977Z" fill="#E98943"/>
<g id="Group">
<path id="Vector_2" d="M59.4502 7.55044C59.4502 3.38106 62.8313 3.74379e-06 67.0006 4.10829e-06C71.17 4.47279e-06 74.5511 3.38107 74.5511 7.55044C74.5511 11.7198 71.17 15.1009 67.0006 15.1009C62.8313 15.1009 59.4502 11.7198 59.4502 7.55044Z" fill="#E98943"/>
<path id="Vector_3" d="M65.17 102.8L68.8313 102.8L68.8313 7.55048L65.17 7.55048L65.17 102.8Z" fill="#E98943"/>
</g>
</g>
</svg>
