<svg width="217" height="211" viewBox="0 0 217 211" fill="none" xmlns="http://www.w3.org/2000/svg">
<g id="Group 208">
<path id="Vector" d="M99.2575 69.5811C73.2411 66.7955 49.8924 85.6279 47.1069 111.644C44.3214 137.661 63.1537 161.009 89.1701 163.795C115.187 166.58 138.535 147.748 141.321 121.732C144.106 95.7152 125.274 72.3666 99.2575 69.5811Z" fill="#E98943"/>
<g id="Group">
<path id="Vector_2" d="M163.611 51.0143C166.857 48.3967 171.611 48.9058 174.229 52.1511C176.846 55.3964 176.337 60.1507 173.092 62.7683C169.846 65.3859 165.092 64.8768 162.474 61.6315C159.857 58.3862 160.366 53.6318 163.611 51.0143Z" fill="#E98943"/>
<path id="Vector_3" d="M93.0634 115.265L95.362 118.115L169.501 58.3162L167.202 55.4664L93.0634 115.265Z" fill="#E98943"/>
</g>
</g>
</svg>
