<svg width="213" height="197" viewBox="0 0 213 197" fill="none" xmlns="http://www.w3.org/2000/svg">
<path d="M40.5459 140.036C36.8302 141.927 32.2833 140.448 30.392 136.732C28.5007 133.016 29.9802 128.47 33.6959 126.578C37.4117 124.687 41.9586 126.167 43.8499 129.882C45.7411 133.598 44.2616 138.145 40.5459 140.036Z" fill="#B52A0C"/>
<path d="M122.837 91.7324L121.177 88.4695L36.2905 131.676L37.9513 134.939L122.837 91.7324Z" fill="#B52A0C"/>
<path d="M107.346 135.154C132.227 143.25 158.961 129.643 167.057 104.762C175.153 79.8805 161.546 53.1472 136.665 45.0512C111.784 36.9552 85.0503 50.5622 76.9543 75.4433C68.8582 100.324 82.4652 127.058 107.346 135.154Z" fill="#B52A0C"/>
<g clip-path="url(#clip0_1119_32402)">
<path d="M90.8912 88.4073C88.0242 74.1923 103.873 66.479 111.186 70.7949C110.705 62.251 125.191 55.2933 135.714 64.0295C153.753 59.8959 156.476 76.8112 153.89 85.0458C162.635 85.72 162.635 106.648 149.656 105.381C148.699 113.844 135.717 119.196 125.262 111.512C116.037 118.857 103.941 116.482 95.6085 109.502C82.9669 112.805 79.5474 93.72 90.8912 88.4106L90.8912 88.4073Z" fill="#F1F0E6"/>
<path d="M116.629 100.274C115.73 100.723 113.929 101.173 111.624 101.173C106.279 101.173 102.258 97.8046 102.258 91.6157C102.258 85.4268 106.279 81.6971 112.157 81.6971C114.52 81.6971 116.011 82.202 116.655 82.5375L116.063 84.5278C115.135 84.0783 113.814 83.7427 112.242 83.7427C107.799 83.7427 104.844 86.5734 104.844 91.5343C104.844 96.1597 107.515 99.1271 112.124 99.1271C113.618 99.1271 115.135 98.8177 116.119 98.3421L116.626 100.277L116.629 100.274Z" fill="#9E280E"/>
<path d="M111.624 101.557C105.7 101.557 101.875 97.6548 101.875 91.6157C101.875 85.5766 106.102 81.3127 112.16 81.3127C114.926 81.3127 116.439 81.9903 116.838 82.1955L117.119 82.3421L116.308 85.0684L115.9 84.873C114.9 84.3909 113.602 84.1271 112.245 84.1271C107.855 84.1271 105.233 86.8958 105.233 91.5342C105.233 96.1727 107.812 98.746 112.131 98.746C113.54 98.746 115.004 98.4593 115.959 98L116.38 97.7981L117.083 100.485L116.805 100.625C115.893 101.081 114.056 101.567 111.627 101.567L111.624 101.557ZM112.157 82.0815C106.465 82.0815 102.644 85.9121 102.644 91.6157C102.644 97.3193 106.086 100.788 111.624 100.788C113.68 100.788 115.289 100.417 116.174 100.055L115.864 98.8665C114.834 99.2639 113.451 99.5049 112.127 99.5049C107.4 99.5049 104.461 96.4496 104.461 91.5277C104.461 86.6059 107.443 83.3551 112.242 83.3551C113.536 83.3551 114.788 83.5831 115.821 83.9968L116.194 82.7427C115.599 82.4919 114.295 82.0782 112.157 82.0782L112.157 82.0815Z" fill="#9E280E"/>
<path d="M135.312 91.2509C135.312 97.7525 131.346 101.199 126.508 101.199C121.67 101.199 117.989 97.3323 117.989 91.6157C117.989 85.619 121.732 81.6971 126.789 81.6971C131.847 81.6971 135.312 85.6483 135.312 91.2509ZM120.604 91.5603C120.604 95.5929 122.798 99.2085 126.652 99.2085C130.506 99.2085 132.726 95.6483 132.726 91.3616C132.726 87.6059 130.758 83.6841 126.681 83.6841C122.605 83.6841 120.607 87.4105 120.607 91.5571L120.604 91.5603Z" fill="#9E280E"/>
<path d="M126.508 101.583C121.264 101.583 117.603 97.4854 117.603 91.6157C117.603 85.746 121.379 81.3127 126.789 81.3127C132.2 81.3127 135.698 85.3062 135.698 91.2509C135.698 98.3877 131.082 101.583 126.511 101.583L126.508 101.583ZM126.789 82.0815C121.833 82.0815 118.375 86.0033 118.375 91.6157C118.375 97.2281 121.644 100.814 126.508 100.814C131.621 100.814 134.926 97.0587 134.926 91.2509C134.926 85.7655 131.657 82.0782 126.789 82.0782L126.789 82.0815ZM126.652 99.5929C122.428 99.5929 120.218 95.5505 120.218 91.5603C120.218 87.5701 122.216 83.303 126.678 83.303C131.14 83.303 133.108 87.4821 133.108 91.3649C133.108 96.2085 130.454 99.5929 126.652 99.5929ZM126.678 84.0717C122.745 84.0717 120.987 87.8339 120.987 91.5603C120.987 95.0587 122.758 98.8274 126.652 98.8274C130.545 98.8274 132.34 95.0782 132.34 91.3649C132.34 87.8502 130.568 84.0717 126.678 84.0717Z" fill="#9E280E"/>
<path d="M137.1 100.893L137.1 100.007L138.234 98.9088C140.957 96.3225 142.19 94.9479 142.206 93.3486C142.206 92.2671 141.683 91.2671 140.088 91.2671C139.12 91.2671 138.316 91.759 137.822 92.1662L137.361 91.1531C138.1 90.531 139.153 90.075 140.385 90.075C142.684 90.075 143.651 91.645 143.651 93.1694C143.651 95.1303 142.223 96.7166 139.974 98.8795L139.12 99.6645L139.12 99.6971L143.916 99.6971L143.916 100.893L137.1 100.893Z" fill="#9E280E"/>
<path d="M144.302 101.274L136.717 101.274L136.717 99.8437L137.97 98.6352C140.676 96.0652 141.811 94.7623 141.824 93.3453C141.824 92.2215 141.242 91.6515 140.091 91.6515C139.186 91.6515 138.437 92.1596 138.071 92.4626L137.682 92.7851L136.894 91.0489L137.116 90.8632C138.015 90.1075 139.176 89.6938 140.389 89.6938C142.912 89.6938 144.04 91.4398 144.04 93.1727C144.04 95.3453 142.468 97.0228 140.245 99.1564L140.072 99.316L144.302 99.316L144.302 101.277L144.302 101.274ZM137.486 100.508L143.534 100.508L143.534 100.078L138.738 100.078L138.738 99.5277L138.862 99.3811L139.715 98.5961C141.794 96.5994 143.269 95.0391 143.269 93.1694C143.269 91.9186 142.514 90.4593 140.385 90.4593C139.454 90.4593 138.561 90.746 137.835 91.2704L137.973 91.5766C138.509 91.2183 139.231 90.886 140.088 90.886C141.654 90.886 142.592 91.8079 142.592 93.3486C142.576 95.1303 141.268 96.5603 138.502 99.189L137.486 100.169L137.486 100.508Z" fill="#9E280E"/>
</g>
<defs>
<clipPath id="clip0_1119_32402">
<rect width="76" height="56" fill="white" transform="translate(84 60)"/>
</clipPath>
</defs>
</svg>
