<svg width="96" height="151" viewBox="0 0 96 151" fill="none" xmlns="http://www.w3.org/2000/svg">
<path d="M48 55.4216C21.8349 55.4216 0.623847 76.6326 0.623844 102.798C0.623842 128.963 21.8349 150.174 48 150.174C74.1651 150.174 95.3762 128.963 95.3762 102.798C95.3762 76.6326 74.1651 55.4216 48 55.4216Z" fill="#E98943"/>
<path d="M40.4501 7.55044C40.4501 3.38106 43.8312 3.74379e-06 48.0006 4.10829e-06C52.17 4.47279e-06 55.551 3.38107 55.551 7.55044C55.551 11.7198 52.17 15.1009 48.0006 15.1009C43.8312 15.1009 40.4501 11.7198 40.4501 7.55044Z" fill="#E98943"/>
<path d="M46.1699 102.8L49.8312 102.8L49.8312 7.55045L46.17 7.55045L46.1699 102.8Z" fill="#E98943"/>
<g clip-path="url(#clip0_2293_5)">
<path d="M53.6129 82.7907L50.0977 73.4526C49.7039 72.3721 48.7517 72 47.9857 72C47.2196 72 46.2818 72.3721 45.8737 73.4526L42.3728 82.7907C46.0097 83.0554 49.9903 83.0554 53.6129 82.7907Z" fill="#F1F0E6"/>
<path d="M58.0087 94.5045L54.0424 83.9356C52.1023 84.093 50.0762 84.186 48 84.186C45.9238 84.186 43.9049 84.093 41.9719 83.9356L38.0056 94.5045C40.991 94.9553 44.4275 95.2057 48.0072 95.2057C51.5868 95.2057 55.0233 94.9553 58.0087 94.5045Z" fill="#F1F0E6"/>
<path d="M62.2541 105.839L58.4239 95.6279C55.3311 96.1145 51.7371 96.3792 47.9857 96.3792C44.2342 96.3792 40.6617 96.1145 37.5689 95.6279L33.7387 105.839C37.2253 106.805 42.473 107.385 47.9857 107.385C53.4983 107.385 58.7747 106.805 62.2541 105.839Z" fill="#F1F0E6"/>
<path d="M47.9928 119.549C59.0539 119.549 65.8767 117.474 66.0486 115.943L65.8481 115.377L64.223 111.055C64.223 111.055 64.2086 111.027 64.2086 110.991L62.6765 106.934C59.0826 107.95 53.6773 108.558 47.9928 108.558C42.3084 108.558 36.9174 107.95 33.3234 106.934L31.7913 111.027C31.7913 111.027 31.7914 111.041 31.777 111.055L29.9514 115.943C30.1232 117.474 36.946 119.549 47.9928 119.549Z" fill="#F1F0E6"/>
<path d="M21.0739 117.803L46.9404 127.814C47.5991 128.064 48.3938 128.064 49.0524 127.814L74.9189 117.803C75.5919 117.538 76 117.088 76 116.587C76 116.086 75.5919 115.635 74.9189 115.37L65.755 111.821L66.9292 114.941C67.1296 115.234 67.2442 115.549 67.2442 115.878V115.893C67.2442 115.943 67.2299 115.971 67.2299 116C66.9793 119.091 57.4503 120.716 48 120.716C38.5497 120.716 29.035 119.091 28.7844 116C28.7844 115.971 28.7701 115.936 28.7701 115.893V115.878C28.7701 115.563 28.8775 115.256 29.0637 114.955L30.2378 111.814L21.081 115.356C20.4081 115.621 20 116.072 20 116.572C20 117.08 20.4009 117.531 21.0739 117.803Z" fill="#F1F0E6"/>
</g>
<defs>
<clipPath id="clip0_2293_5">
<rect width="56" height="56" fill="white" transform="translate(20 72)"/>
</clipPath>
</defs>
</svg>
