<svg width="199" height="174" viewBox="0 0 199 174" fill="none" xmlns="http://www.w3.org/2000/svg">
<g id="Group 207">
<path id="Vector" d="M92.9477 123.087C115.607 136.169 144.582 128.406 157.665 105.746C170.747 83.0863 162.984 54.1115 140.324 41.029C117.664 27.9464 88.6894 35.7102 75.6068 58.3698C62.5243 81.0295 70.2881 110.004 92.9477 123.087Z" fill="#E98943"/>
<g id="Group">
<path id="Vector_2" d="M26.588 114.002C22.5607 115.081 18.4198 112.691 17.3407 108.663C16.2616 104.636 18.6523 100.495 22.6796 99.416C26.7069 98.3369 30.8479 100.728 31.927 104.755C33.0061 108.782 30.6153 112.923 26.588 114.002Z" fill="#E98943"/>
<path id="Vector_3" d="M117.111 83.8251L116.164 80.2886L24.1601 104.941L25.1077 108.477L117.111 83.8251Z" fill="#E98943"/>
</g>
</g>
</svg>
