<svg width="1600" height="667" viewBox="0 0 1600 667" fill="none" xmlns="http://www.w3.org/2000/svg">
<g clip-path="url(#clip0_1091_40322)">
<path d="M1121.09 667C1025.95 667 948.552 589.616 948.552 494.489V179.937C948.552 123.957 903.007 78.4192 847.018 78.4192C791.029 78.4192 745.484 123.957 745.484 179.937V221.441C745.484 293.809 686.602 352.663 614.241 352.663H528.114C498.995 352.663 475.303 376.351 475.303 405.466C475.303 508.18 391.729 591.741 288.999 591.741H1.7854V513.321H288.963C348.452 513.321 396.853 464.928 396.853 405.448C396.853 333.081 455.735 274.226 528.096 274.226H614.223C643.342 274.226 667.034 250.538 667.034 221.423V179.92C667.034 80.7041 747.769 -0.0178223 847 -0.0178223C946.231 -0.0178223 1026.97 80.7041 1026.97 179.92V494.453C1026.97 546.346 1069.19 588.545 1121.07 588.545C1172.96 588.545 1215.18 546.328 1215.18 494.453V351.324C1215.18 278.957 1274.06 220.102 1346.42 220.102H1598.18V298.521H1346.42C1317.3 298.521 1293.61 322.209 1293.61 351.324V494.453C1293.61 589.581 1216.22 666.964 1121.07 666.964L1121.09 667Z" fill="white"/>
<path d="M1121.09 658.967C1030.38 658.967 956.569 585.171 956.569 494.471V179.937C956.569 119.53 907.417 70.3862 847 70.3862C786.583 70.3862 737.432 119.53 737.432 179.937V221.441C737.432 289.381 682.156 344.648 614.205 344.648H528.078C494.531 344.648 467.233 371.942 467.233 405.484C467.233 503.771 387.248 583.743 288.945 583.743H1.7854V521.372H288.963C352.88 521.372 404.87 469.39 404.87 405.484C404.87 337.543 460.145 282.277 528.096 282.277H614.223C647.77 282.277 675.068 254.983 675.068 221.441V179.937C675.068 85.1311 752.197 8.01508 847.018 8.01508C941.839 8.01508 1018.97 85.1311 1018.97 179.937V494.471C1018.97 550.773 1064.78 596.596 1121.11 596.596C1177.44 596.596 1223.25 550.79 1223.25 494.471V351.342C1223.25 283.401 1278.53 228.135 1346.48 228.135H1598.23V290.506H1346.48C1312.93 290.506 1285.63 317.8 1285.63 351.342V494.471C1285.63 585.171 1211.82 658.967 1121.11 658.967H1121.09Z" fill="#4D4D54"/>
<path d="M16.9254 554.343H1.78538C0.803419 554.343 0 553.54 0 552.558C0 551.576 0.803419 550.773 1.78538 550.773H16.9432C17.9252 550.773 18.7286 551.576 18.7286 552.558C18.7286 553.54 17.9252 554.343 16.9432 554.343H16.9254Z" fill="white"/>
<path d="M1131.59 629.156C1130.66 629.156 1129.89 628.442 1129.82 627.514C1129.75 626.532 1130.48 625.675 1131.46 625.604C1141.35 624.836 1151.14 622.944 1160.57 619.981C1161.51 619.677 1162.51 620.213 1162.8 621.141C1163.1 622.087 1162.57 623.087 1161.64 623.372C1151.96 626.407 1141.91 628.353 1131.75 629.138C1131.7 629.138 1131.66 629.138 1131.61 629.138L1131.59 629.156ZM1101.58 628.139C1101.58 628.139 1101.4 628.138 1101.31 628.121C1091.24 626.639 1081.35 624.015 1071.89 620.32C1070.98 619.963 1070.51 618.927 1070.87 618.017C1071.23 617.107 1072.26 616.643 1073.17 617C1082.38 620.605 1092.01 623.158 1101.81 624.586C1102.79 624.729 1103.45 625.639 1103.31 626.603C1103.18 627.496 1102.42 628.121 1101.54 628.121L1101.58 628.139ZM1188.56 611.269C1187.95 611.269 1187.35 610.948 1187.02 610.395C1186.52 609.538 1186.81 608.449 1187.67 607.949C1196.18 602.933 1204.16 596.953 1211.38 590.152C1212.09 589.473 1213.22 589.509 1213.89 590.223C1214.57 590.937 1214.54 592.062 1213.82 592.74C1206.41 599.72 1198.24 605.878 1189.47 611.019C1189.19 611.18 1188.88 611.269 1188.58 611.269H1188.56ZM1046 606.414C1045.66 606.414 1045.3 606.307 1045 606.11C1036.61 600.38 1028.86 593.704 1021.95 586.242C1021.29 585.51 1021.32 584.386 1022.04 583.725C1022.75 583.065 1023.9 583.101 1024.56 583.815C1031.29 591.08 1038.84 597.596 1047 603.165C1047.82 603.719 1048.02 604.825 1047.46 605.646C1047.12 606.146 1046.55 606.432 1045.98 606.432L1046 606.414ZM1231.98 570.302C1231.64 570.302 1231.3 570.212 1231 569.998C1230.18 569.445 1229.96 568.338 1230.52 567.535C1236.03 559.305 1240.6 550.451 1244.1 541.222C1244.46 540.294 1245.48 539.848 1246.41 540.187C1247.33 540.544 1247.78 541.561 1247.44 542.49C1243.84 551.969 1239.14 561.073 1233.48 569.516C1233.14 570.034 1232.57 570.302 1232 570.302H1231.98ZM1005.43 562.608C1004.81 562.608 1004.22 562.286 1003.88 561.715C998.811 552.897 994.74 543.489 991.794 533.779C991.508 532.832 992.044 531.833 992.99 531.547C993.936 531.262 994.936 531.797 995.222 532.743C998.096 542.204 1002.06 551.344 1006.99 559.948C1007.47 560.805 1007.18 561.894 1006.33 562.376C1006.04 562.536 1005.74 562.608 1005.43 562.608ZM288.963 554.325H287.945C286.963 554.325 286.16 553.522 286.16 552.54C286.16 551.558 286.963 550.755 287.945 550.755H288.963C298.568 550.755 308.174 549.809 317.511 547.952C318.475 547.774 319.422 548.381 319.6 549.345C319.796 550.308 319.172 551.255 318.207 551.433C308.638 553.343 298.8 554.307 288.963 554.307V554.325ZM257.826 554.325H227.707C226.725 554.325 225.921 553.522 225.921 552.54C225.921 551.558 226.725 550.755 227.707 550.755H257.826C258.808 550.755 259.611 551.558 259.611 552.54C259.611 553.522 258.808 554.325 257.826 554.325ZM197.605 554.325H167.486C166.504 554.325 165.701 553.522 165.701 552.54C165.701 551.558 166.504 550.755 167.486 550.755H197.605C198.587 550.755 199.391 551.558 199.391 552.54C199.391 553.522 198.587 554.325 197.605 554.325ZM137.385 554.325H107.265C106.283 554.325 105.48 553.522 105.48 552.54C105.48 551.558 106.283 550.755 107.265 550.755H137.385C138.367 550.755 139.17 551.558 139.17 552.54C139.17 553.522 138.367 554.325 137.385 554.325ZM77.1639 554.325H47.0447C46.0627 554.325 45.2593 553.522 45.2593 552.54C45.2593 551.558 46.0627 550.755 47.0447 550.755H77.1639C78.1459 550.755 78.9493 551.558 78.9493 552.54C78.9493 553.522 78.1459 554.325 77.1639 554.325ZM346.577 542.615C345.881 542.615 345.22 542.204 344.935 541.526C344.542 540.615 344.97 539.58 345.881 539.187C354.986 535.314 363.717 530.476 371.858 524.817C372.661 524.264 373.768 524.46 374.34 525.264C374.893 526.067 374.697 527.174 373.893 527.745C365.556 533.546 356.593 538.509 347.273 542.472C347.041 542.561 346.809 542.615 346.577 542.615ZM1253.19 514.517C1253.19 514.517 1253.03 514.517 1252.94 514.517C1251.96 514.375 1251.28 513.482 1251.42 512.518C1252.24 506.592 1252.66 500.522 1252.66 494.489V482.707C1252.66 481.725 1253.46 480.922 1254.44 480.922C1255.42 480.922 1256.23 481.725 1256.23 482.707V494.489C1256.23 500.683 1255.8 506.913 1254.98 513C1254.85 513.893 1254.08 514.535 1253.21 514.535L1253.19 514.517ZM395.675 508.484C395.229 508.484 394.8 508.323 394.443 508.002C393.729 507.323 393.693 506.199 394.372 505.485C401.192 498.291 407.298 490.401 412.511 481.993C413.029 481.154 414.136 480.904 414.957 481.422C415.796 481.939 416.046 483.046 415.528 483.867C410.19 492.471 403.923 500.576 396.943 507.93C396.585 508.305 396.121 508.484 395.657 508.484H395.675ZM988.08 505.485C987.152 505.485 986.367 504.771 986.295 503.825C986.081 500.719 985.974 497.577 985.974 494.453V473.603C985.974 472.621 986.777 471.818 987.759 471.818C988.741 471.818 989.544 472.621 989.544 473.603V494.453C989.544 497.488 989.652 500.558 989.848 503.575C989.919 504.557 989.17 505.413 988.188 505.467C988.152 505.467 988.098 505.467 988.063 505.467L988.08 505.485ZM427.187 457.68C426.99 457.68 426.776 457.644 426.58 457.573C425.651 457.234 425.187 456.216 425.509 455.288C428.901 446.005 431.347 436.312 432.757 426.512C432.9 425.53 433.811 424.87 434.775 425.013C435.757 425.156 436.417 426.066 436.274 427.03C434.81 437.08 432.311 447.005 428.847 456.52C428.579 457.252 427.901 457.698 427.169 457.698L427.187 457.68ZM1254.42 454.36C1253.44 454.36 1252.64 453.556 1252.64 452.575V422.46C1252.64 421.478 1253.44 420.675 1254.42 420.675C1255.4 420.675 1256.21 421.478 1256.21 422.46V452.575C1256.21 453.556 1255.4 454.36 1254.42 454.36ZM987.759 445.274C986.777 445.274 985.974 444.47 985.974 443.489V413.374C985.974 412.392 986.777 411.589 987.759 411.589C988.741 411.589 989.544 412.392 989.544 413.374V443.489C989.544 444.47 988.741 445.274 987.759 445.274ZM436.471 398.522C436.471 398.522 436.364 398.522 436.31 398.522C435.328 398.433 434.614 397.558 434.703 396.576C435.667 386.33 438.292 376.387 442.487 367.033C442.898 366.14 443.952 365.73 444.844 366.14C445.737 366.551 446.148 367.604 445.737 368.497C441.684 377.494 439.167 387.062 438.238 396.915C438.149 397.844 437.381 398.54 436.471 398.54V398.522ZM1254.42 394.131C1253.44 394.131 1252.64 393.327 1252.64 392.346V362.231C1252.64 361.249 1253.44 360.446 1254.42 360.446C1255.4 360.446 1256.21 361.249 1256.21 362.231V392.346C1256.21 393.327 1255.4 394.131 1254.42 394.131ZM987.759 385.045C986.777 385.045 985.974 384.241 985.974 383.259V353.145C985.974 352.163 986.777 351.36 987.759 351.36C988.741 351.36 989.544 352.163 989.544 353.145V383.259C989.544 384.241 988.741 385.045 987.759 385.045ZM460.68 344.559C460.252 344.559 459.806 344.398 459.466 344.077C458.752 343.398 458.699 342.274 459.377 341.56C466.376 334.027 474.499 327.743 483.533 322.852C484.408 322.388 485.479 322.709 485.944 323.566C486.408 324.441 486.086 325.512 485.229 325.976C476.552 330.671 468.733 336.722 461.984 343.97C461.627 344.344 461.163 344.541 460.68 344.541V344.559ZM1256.39 334.044C1256.26 334.044 1256.14 334.044 1256.01 334.009C1255.05 333.812 1254.42 332.866 1254.64 331.902C1256.74 321.852 1260.49 312.284 1265.74 303.448C1266.24 302.609 1267.33 302.323 1268.19 302.823C1269.03 303.323 1269.31 304.412 1268.81 305.269C1263.76 313.766 1260.15 322.977 1258.14 332.634C1257.96 333.473 1257.23 334.044 1256.39 334.044ZM987.759 324.816C986.777 324.816 985.974 324.012 985.974 323.03V292.916C985.974 291.934 986.777 291.131 987.759 291.131C988.741 291.131 989.544 291.934 989.544 292.916V323.03C989.544 324.012 988.741 324.816 987.759 324.816ZM512.706 316.461C511.849 316.461 511.099 315.836 510.957 314.98C510.796 314.016 511.457 313.087 512.421 312.927C517.563 312.07 522.829 311.624 528.096 311.624H542.754C543.736 311.624 544.54 312.427 544.54 313.409C544.54 314.391 543.736 315.194 542.754 315.194H528.096C523.044 315.194 517.973 315.622 513.01 316.443C512.903 316.443 512.813 316.461 512.706 316.461ZM602.975 315.176H572.856C571.874 315.176 571.07 314.373 571.07 313.391C571.07 312.409 571.874 311.606 572.856 311.606H602.975C603.957 311.606 604.76 312.409 604.76 313.391C604.76 314.373 603.957 315.176 602.975 315.176ZM632.951 313.266C632.13 313.266 631.38 312.695 631.202 311.838C631.005 310.874 631.63 309.928 632.594 309.731C642.271 307.732 651.484 304.162 660.018 299.146C660.857 298.646 661.964 298.932 662.464 299.771C662.964 300.628 662.678 301.716 661.839 302.216C652.983 307.447 643.396 311.142 633.326 313.23C633.201 313.248 633.076 313.266 632.969 313.266H632.951ZM683.906 283.259C683.495 283.259 683.085 283.116 682.745 282.83C681.996 282.188 681.924 281.063 682.567 280.313C689.03 272.816 694.19 264.39 697.903 255.25C698.278 254.34 699.314 253.894 700.224 254.269C701.135 254.644 701.581 255.679 701.206 256.589C697.35 266.086 691.994 274.851 685.263 282.634C684.906 283.044 684.406 283.259 683.906 283.259ZM1286.58 283.187C1286.08 283.187 1285.58 282.973 1285.22 282.562C1284.58 281.813 1284.67 280.688 1285.42 280.045C1293.24 273.351 1302.02 268.014 1311.52 264.194C1312.43 263.837 1313.47 264.265 1313.84 265.176C1314.22 266.086 1313.77 267.121 1312.86 267.496C1303.72 271.173 1295.25 276.297 1287.74 282.741C1287.4 283.026 1286.99 283.169 1286.58 283.169V283.187ZM987.759 264.604C986.777 264.604 985.974 263.801 985.974 262.819V232.705C985.974 231.723 986.777 230.92 987.759 230.92C988.741 230.92 989.544 231.723 989.544 232.705V262.819C989.544 263.801 988.741 264.604 987.759 264.604ZM1341.46 261.195C1340.51 261.195 1339.73 260.463 1339.67 259.517C1339.62 258.535 1340.37 257.696 1341.35 257.642C1343.03 257.553 1344.74 257.5 1346.44 257.5H1371.56C1372.54 257.5 1373.35 258.303 1373.35 259.285C1373.35 260.267 1372.54 261.07 1371.56 261.07H1346.44C1344.8 261.07 1343.16 261.106 1341.55 261.195C1341.51 261.195 1341.48 261.195 1341.46 261.195ZM1552.24 261.07H1522.12C1521.14 261.07 1520.34 260.267 1520.34 259.285C1520.34 258.303 1521.14 257.5 1522.12 257.5H1552.24C1553.22 257.5 1554.03 258.303 1554.03 259.285C1554.03 260.267 1553.22 261.07 1552.24 261.07ZM1492.02 261.07H1461.9C1460.92 261.07 1460.12 260.267 1460.12 259.285C1460.12 258.303 1460.92 257.5 1461.9 257.5H1492.02C1493 257.5 1493.81 258.303 1493.81 259.285C1493.81 260.267 1493 261.07 1492.02 261.07ZM1431.8 261.07H1401.68C1400.7 261.07 1399.9 260.267 1399.9 259.285C1399.9 258.303 1400.7 257.5 1401.68 257.5H1431.8C1432.78 257.5 1433.59 258.303 1433.59 259.285C1433.59 260.267 1432.78 261.07 1431.8 261.07ZM706.116 228.474C706.116 228.474 706.045 228.474 706.009 228.474C705.027 228.42 704.277 227.582 704.331 226.6C704.42 224.886 704.473 223.137 704.473 221.405V196.61C704.473 195.628 705.277 194.825 706.259 194.825C707.241 194.825 708.044 195.628 708.044 196.61V221.405C708.044 223.208 707.991 225.029 707.884 226.814C707.83 227.76 707.044 228.492 706.098 228.492L706.116 228.474ZM987.777 204.393C986.795 204.393 985.992 203.59 985.992 202.608V179.884C985.992 177.456 985.92 175.011 985.795 172.601C985.742 171.619 986.491 170.78 987.491 170.726C988.473 170.673 989.312 171.44 989.366 172.422C989.491 174.903 989.562 177.42 989.562 179.902V202.626C989.562 203.608 988.759 204.411 987.777 204.411V204.393ZM706.902 168.281C706.902 168.281 706.794 168.281 706.723 168.281C705.741 168.191 705.027 167.317 705.116 166.335C706.08 156.213 708.116 146.181 711.204 136.524C711.508 135.596 712.508 135.06 713.436 135.364C714.382 135.667 714.9 136.667 714.597 137.595C711.597 147.002 709.598 156.785 708.669 166.656C708.58 167.585 707.812 168.263 706.902 168.263V168.281ZM982.849 144.61C982.064 144.61 981.35 144.093 981.135 143.289C978.529 133.739 974.904 124.457 970.316 115.674C969.87 114.799 970.191 113.728 971.066 113.264C971.941 112.8 973.012 113.139 973.476 114.014C978.172 123.029 981.921 132.543 984.581 142.343C984.831 143.289 984.278 144.271 983.331 144.539C983.171 144.575 983.01 144.61 982.867 144.61H982.849ZM725.059 111.354C724.755 111.354 724.452 111.283 724.166 111.122C723.309 110.622 723.024 109.533 723.506 108.694C728.576 99.9117 734.611 91.6467 741.449 84.1136C742.109 83.3817 743.234 83.3281 743.966 83.9886C744.698 84.6491 744.752 85.7737 744.091 86.5056C737.432 93.8423 731.54 101.911 726.594 110.462C726.273 111.033 725.666 111.354 725.041 111.354H725.059ZM955.23 91.6467C954.712 91.6467 954.212 91.4325 953.855 91.004C947.517 83.3995 940.357 76.4555 932.555 70.3505C931.788 69.7436 931.645 68.619 932.252 67.8514C932.859 67.0838 933.984 66.941 934.751 67.5479C942.75 73.7957 950.105 80.9183 956.586 88.7191C957.211 89.4689 957.122 90.5935 956.354 91.2361C956.015 91.5039 955.622 91.6467 955.212 91.6467H955.23ZM765.23 67.1195C764.676 67.1195 764.123 66.8517 763.784 66.3698C763.212 65.5665 763.391 64.4597 764.194 63.8885C772.461 57.9798 781.37 52.9459 790.689 48.9294C791.6 48.5367 792.635 48.9651 793.028 49.8576C793.421 50.768 792.992 51.8034 792.1 52.1961C783.03 56.1055 774.335 61.0145 766.265 66.7803C765.944 67.0124 765.587 67.1195 765.23 67.1195ZM908.149 54.8559C907.881 54.8559 907.631 54.8024 907.381 54.6774C898.455 50.3753 889.063 47.0194 879.44 44.7344C878.476 44.5024 877.887 43.5384 878.119 42.5923C878.351 41.6284 879.315 41.0393 880.262 41.2714C890.135 43.6277 899.776 47.0551 908.935 51.4821C909.827 51.9105 910.185 52.9816 909.774 53.8563C909.47 54.4989 908.828 54.8559 908.167 54.8559H908.149ZM820.094 43.5027C819.255 43.5027 818.505 42.9136 818.345 42.0568C818.166 41.0928 818.791 40.1467 819.755 39.9682C828.682 38.2367 837.841 37.362 847 37.362C847.982 37.3799 849.035 37.362 850.071 37.3977C851.053 37.4156 851.838 38.2367 851.82 39.2185C851.803 40.2003 850.999 40.9322 849.999 40.9679C849.018 40.95 848.018 40.9322 847.018 40.9322C838.091 40.9322 829.146 41.789 820.452 43.467C820.344 43.4849 820.219 43.5027 820.112 43.5027H820.094Z" fill="white"/>
<path d="M1598.21 261.106H1583.06C1582.07 261.106 1581.27 260.302 1581.27 259.32C1581.27 258.339 1582.07 257.535 1583.06 257.535H1598.21C1599.2 257.535 1600 258.339 1600 259.32C1600 260.302 1599.2 261.106 1598.21 261.106Z" fill="white"/>
</g>
<defs>
<clipPath id="clip0_1091_40322">
<rect width="1600" height="667" fill="white"/>
</clipPath>
</defs>
</svg>
