<svg width="55" height="63" viewBox="0 0 55 63" fill="none" xmlns="http://www.w3.org/2000/svg">
<path id="Vector" d="M13.9817 27.4655L11.0659 21.4914C9.84436 21.6466 8.66228 21.569 7.67721 21.2198C2.0032 19.2802 -1.38544 12.0647 0.545299 6.47845C0.545299 6.47845 1.41216 6.05172 1.88499 5.81897C4.87961 11.9871 4.13096 11.2112 6.96796 12.2198C9.17452 12.9957 14.0605 10.7457 14.8485 8.53448C15.8336 5.81897 15.9518 6.67241 13.036 0.62069C13.5088 0.387931 14.3757 0 14.4151 0C20.0891 1.90086 23.5565 9.19397 21.547 14.7414C21.1924 15.75 20.4437 16.7198 19.4981 17.6121L23.5565 25.9914H23.4777L23.7142 26.4957H16.3458C15.4396 26.4957 14.5727 26.8448 13.9817 27.4267V27.4655ZM34.7075 51.1681L38.6084 56.9095L38.4114 59.2371L30.4126 63L28.4819 61.681L26.3935 55.0086L24.4234 50.9741H34.6287L34.7075 51.1293V51.1681ZM34.5499 54.6983C33.9195 53.4181 32.3434 52.875 31.0037 53.4957C29.7034 54.1164 29.1123 55.6681 29.7822 56.9871C30.4126 58.2672 31.9888 58.8103 33.3284 58.1897C34.6287 57.569 35.2198 56.0172 34.5499 54.6983ZM55 26.6897V48.4138L45.7403 49.1897V46.0862L42.9821 46.9397L36.5989 49.5776H22.138C20.3649 49.5776 18.8676 48.2198 18.8676 46.5517C18.8676 45.7371 19.2222 45 19.8133 44.4181H19.6951C17.9219 44.4181 16.4246 43.0603 16.4246 41.3922C16.4246 40.6552 16.7399 39.9569 17.2127 39.4138C15.7942 39.0647 14.7697 37.9009 14.7697 36.4655C14.7697 35.3405 15.4396 34.3707 16.4246 33.8276C15.3214 33.3621 14.5333 32.2759 14.5333 31.0733C14.5333 29.4052 15.9912 28.0474 17.8037 28.0474H30.8855C29.5458 26.7284 26.433 25.4483 24.581 24.0905L22.4139 19.4741C22.8473 17.1466 24.6204 13.6552 28.4425 14.625C28.5213 14.625 28.6001 14.625 28.6789 14.625C30.0186 22.1509 42.9427 22.3448 45.0705 29.4828H45.7403V27.4267L55 26.6509V26.6897ZM52.1236 44.6121C52.1236 43.5647 51.2567 42.7112 50.1929 42.7112C49.129 42.7112 48.2621 43.5647 48.2621 44.6121C48.2621 45.6595 49.129 46.5129 50.1929 46.5129C51.2567 46.5129 52.1236 45.6595 52.1236 44.6121Z" fill="#F1F0E6"/>
</svg>
