<svg width="73" height="45" viewBox="0 0 73 45" fill="none" xmlns="http://www.w3.org/2000/svg">
<path d="M70.8618 13.8227C70.4124 13.7327 70.008 13.7327 69.6935 13.6877C68.5701 13.5976 67.6714 15.8939 67.6714 15.8939L67.1322 15.8038V15.7138C66.7727 14.7683 66.2785 13.5526 65.6943 12.2919C64.7507 9.86051 63.4026 6.7988 62.2343 5.31297C62.1445 5.08784 62.0546 4.99779 62.0546 4.99779C62.0546 4.99779 55.5391 3.64704 50.5963 2.65649C49.3831 2.38633 48.3046 2.16121 47.4958 2.02613C47.361 2.02613 47.1813 1.98111 47.0465 1.93608C46.8667 1.93608 46.7319 1.89106 46.5971 1.84603C45.7883 1.71096 44.7099 1.53086 43.4966 1.39578C38.5089 0.765428 31.9035 0 31.9035 0C31.9035 0 31.8137 0.0900503 31.6339 0.270151C30.0163 1.30573 27.7695 3.78211 26.107 5.76322C25.1633 6.75378 24.3096 7.74433 23.6805 8.55478V8.64483L23.0964 8.55478C23.0964 8.55478 22.9616 6.0784 21.8831 5.80825C21.5686 5.7182 21.1642 5.62815 20.7148 5.5381C19.6364 5.358 18.2884 5.358 17.9289 7.11398C17.5245 9.18513 18.9624 9.50031 20.1307 9.68041C20.3553 9.68041 20.58 9.77046 20.8047 9.77046C21.5686 9.90554 22.0629 9.63539 22.5571 9.68041C22.647 9.68041 22.7369 9.72544 22.8267 9.77046L22.4223 10.4008C22.4223 10.4008 22.3774 10.4008 22.3325 10.4008C22.0179 10.4909 20.3553 10.9861 17.839 13.0573C17.2549 13.3725 16.8055 13.7327 16.5359 14.1829C14.5588 17.1546 15.0531 23.0079 15.0531 23.0079V23.0979C15.0531 23.0979 14.6936 23.323 14.6487 23.5482V23.6382H9.61599V24.989H4.85293V31.1124H0V32.7783H6.83005V27.4654H9.61599V41.5582H7.549V44.665H17.5694V41.5582H15.5024V31.2925L20.7148 32.148H20.8047C21.1192 32.238 21.4338 32.0129 21.4787 31.6977V32.148C28.3088 33.5888 35.1388 34.8495 41.4297 35.8851C47.7205 36.9657 54.8651 38.0012 61.8299 38.8567L61.2907 44.1697C61.2458 44.4849 61.4705 44.8 61.785 44.8451H61.8749L68.4353 44.9801H68.5252C68.8397 45.0702 69.1543 44.8451 69.1992 44.4849L70.682 32.8684C70.682 32.8684 70.6371 32.4181 70.4574 32.3281V32.238C70.4574 32.238 72.8838 26.88 71.9402 23.4131C71.8054 22.9178 71.4909 22.4225 71.0415 21.9273C69.334 19.1357 67.8961 18.1451 67.6265 17.965C67.6265 17.965 67.6265 17.965 67.5816 17.92L67.4018 17.1546C67.4018 17.1546 67.6265 17.1546 67.7164 17.1546C68.2556 17.2897 68.6151 17.6949 69.3789 17.83C69.6036 17.83 69.8283 17.92 70.053 17.965C71.2213 18.1902 72.7041 18.3252 72.9737 16.2541C73.1984 14.4981 71.9402 14.0028 70.8618 13.8678V13.8227ZM32.0833 0.630352C32.0833 0.630352 43.0922 1.98111 47.0465 2.56643C50.821 3.15176 61.7401 5.76322 61.7401 5.76322C64.7507 9.99559 66.4133 17.0195 66.4133 17.0195C44.4852 11.4814 23.5457 9.90554 23.5457 9.90554C26.4664 5.26794 32.0833 0.630352 32.0833 0.630352ZM23.6805 27.5554L23.5457 28.4109C23.4558 29.0412 22.8267 29.4915 22.1527 29.4014L16.6258 28.4559C15.9967 28.3659 15.5474 27.7355 15.6372 27.1052L15.772 26.2497C15.8619 25.6193 16.491 25.1691 17.1201 25.2591L22.647 26.2046C23.2761 26.2947 23.7254 26.925 23.6356 27.6004L23.6805 27.5554ZM26.9607 19.2257C26.4664 20.8917 26.1519 23.278 23.2761 22.8728C20.4003 22.5126 16.5359 21.7472 16.5359 21.7472C16.5359 21.7472 15.9967 18.3252 17.6143 15.2185L26.062 16.6143C26.062 16.6143 27.4101 17.5598 26.9607 19.2257ZM58.9991 22.7377L57.7858 29.9868C57.7409 30.3019 57.4263 30.5271 57.1118 30.482L28.2638 25.6643C27.9493 25.6193 27.7246 25.3041 27.7695 24.989L28.9828 17.7399C29.0277 17.4247 29.3423 17.1996 29.6568 17.2446L58.5048 22.0623C58.8193 22.1074 59.044 22.4225 58.9991 22.7377ZM68.9745 35.1196L68.8397 35.9751C68.7499 36.6055 68.1208 37.0557 67.4917 36.9657L61.9198 36.0201C61.2907 35.9301 60.8414 35.2997 60.9312 34.6694L61.066 33.8139C61.1559 33.1835 61.785 32.7333 62.459 32.8233L68.0309 33.7689C68.66 33.8589 69.1093 34.4893 69.0195 35.1196H68.9745ZM70.5472 24.0885C71.0864 27.6004 69.4688 30.6171 69.4688 30.6171C69.4688 30.6171 65.5595 30.0768 62.7286 29.4915C59.8977 28.9062 60.3471 26.5648 60.437 24.8089C60.5268 23.0979 62.0995 22.6477 62.0995 22.6477L70.5472 24.0434V24.0885Z" fill="#F1F0E6"/>
</svg>
