<svg width="75" height="46" viewBox="0 0 75 46" fill="none" xmlns="http://www.w3.org/2000/svg">
<g id="Group 237">
<g id="Group">
<path id="Vector" d="M27.3235 22.3616C23.7924 24.3747 21.2559 27.9741 20.7276 32.258L20.0322 37.9994C18.3205 38.1416 16.5765 38.2087 14.8029 38.2087C10.2151 38.2087 5.80259 37.7417 1.65152 36.8559C0.586797 36.6304 -0.114033 35.6078 0.015351 34.5341L1.02616 26.2079C1.4871 22.4072 3.99122 19.3097 7.36329 17.9435C9.40109 19.5889 11.9888 20.5739 14.8029 20.5739C17.617 20.5739 20.2127 19.5889 22.2505 17.9515C24.3854 18.8078 26.1806 20.3646 27.3208 22.3616H27.3235Z" fill="white"/>
<path id="Vector_2" d="M14.8082 0C9.93747 0 5.98856 3.93226 5.98856 8.78518C5.98856 13.6381 9.93747 17.5704 14.8082 17.5704C19.679 17.5704 23.6306 13.6354 23.6306 8.78518C23.6306 3.93495 19.6817 0 14.8082 0Z" fill="white"/>
<path id="Vector_3" d="M73.3573 36.8559C69.2143 37.7417 64.8017 38.2087 60.214 38.2087C58.4404 38.2087 56.691 38.1416 54.9766 37.9994L54.2812 32.266C53.7744 27.9822 51.2407 24.3854 47.7015 22.3643C48.8417 20.3646 50.6288 18.8105 52.7636 17.9542C54.8014 19.5915 57.3891 20.5766 60.2032 20.5766C63.0173 20.5766 65.6131 19.5915 67.6509 17.9462C71.023 19.307 73.5352 22.4099 73.988 26.2106L74.9907 34.5368C75.1255 35.6105 74.4247 36.6331 73.3546 36.8586L73.3573 36.8559Z" fill="white"/>
<path id="Vector_4" d="M60.2086 0C55.3378 0 51.3889 3.93226 51.3889 8.78518C51.3889 13.6381 55.3378 17.5704 60.2086 17.5704C65.0794 17.5704 69.031 13.6354 69.031 8.78518C69.031 3.93495 65.0821 0 60.2086 0Z" fill="white"/>
</g>
<path id="Vector_5" d="M51.3609 44.5592C46.9976 45.4921 42.3419 45.9839 37.5101 45.9839C32.6783 45.9839 28.0226 45.4921 23.6593 44.5592C22.5379 44.3217 21.7998 43.2447 21.9361 42.1139L22.9921 33.3449C23.4861 29.342 26.1234 26.0713 29.6748 24.6409C31.821 26.3738 34.5463 27.4112 37.5101 27.4112C40.4739 27.4112 43.1992 26.3738 45.3454 24.6409C48.8968 26.0741 51.5426 29.342 52.0196 33.3449L53.0841 42.1139C53.2204 43.2447 52.4794 44.3217 51.3609 44.5592Z" fill="white"/>
<path id="Vector_6" d="M37.5073 5.74304C32.3774 5.74304 28.2185 9.88445 28.2185 14.9955C28.2185 20.1065 32.3774 24.2479 37.5073 24.2479C42.6371 24.2479 46.7989 20.1037 46.7989 14.9955C46.7989 9.88727 42.6399 5.74304 37.5073 5.74304Z" fill="white"/>
</g>
</svg>
