<svg width="170" height="134" viewBox="0 0 170 134" fill="none" xmlns="http://www.w3.org/2000/svg">
<g id="Group 205">
<g id="Group">
<path id="Vector" d="M162.247 59.4504C166.417 59.4504 169.798 62.8315 169.798 67.0008C169.798 71.1702 166.417 74.5513 162.247 74.5513C158.078 74.5513 154.697 71.1702 154.697 67.0008C154.697 62.8315 158.078 59.4504 162.247 59.4504Z" fill="#B52A0C"/>
<path id="Vector_2" d="M66.998 65.17L66.998 68.8313L162.247 68.8313L162.247 65.17L66.998 65.17Z" fill="#B52A0C"/>
</g>
<path id="Vector_3" d="M100.5 33.5C81.9985 14.9985 52.0015 14.9985 33.5 33.5C14.9985 52.0015 14.9985 81.9985 33.5 100.5C52.0015 119.002 81.9985 119.002 100.5 100.5C119.002 81.9985 119.002 52.0015 100.5 33.5Z" fill="#B52A0C"/>
<g id="Group 237">
<g id="Group_2">
<path id="Vector_4" d="M57.3162 68.3776C53.7851 70.3907 51.2486 73.9901 50.7203 78.274L50.0249 84.0153C48.3132 84.1576 46.5693 84.2247 44.7956 84.2247C40.2079 84.2247 35.7953 83.7577 31.6443 82.8719C30.5795 82.6464 29.8787 81.6238 30.0081 80.5501L31.0189 72.2239C31.4798 68.4232 33.984 65.3257 37.356 63.9595C39.3938 65.6048 41.9815 66.5899 44.7956 66.5899C47.6097 66.5899 50.2055 65.6048 52.2433 63.9675C54.3781 64.8238 56.1733 66.3806 57.3135 68.3776H57.3162Z" fill="#F1F0E6"/>
<path id="Vector_5" d="M44.801 46.0161C39.9302 46.0161 35.9813 49.9484 35.9813 54.8013C35.9813 59.6542 39.9302 63.5865 44.801 63.5865C49.6718 63.5865 53.6234 59.6515 53.6234 54.8013C53.6234 49.9511 49.6745 46.0161 44.801 46.0161Z" fill="#F1F0E6"/>
<path id="Vector_6" d="M103.35 82.8719C99.207 83.7577 94.7945 84.2247 90.2067 84.2247C88.4331 84.2247 86.6837 84.1576 84.9694 84.0153L84.2739 78.282C83.7672 73.9981 81.2334 70.4014 77.6942 68.3802C78.8344 66.3806 80.6215 64.8264 82.7564 63.9702C84.7942 65.6075 87.3818 66.5926 90.1959 66.5926C93.01 66.5926 95.6058 65.6075 97.6436 63.9622C101.016 65.323 103.528 68.4259 103.981 72.2266L104.983 80.5528C105.118 81.6265 104.417 82.6491 103.347 82.8746L103.35 82.8719Z" fill="#F1F0E6"/>
<path id="Vector_7" d="M90.2013 46.0161C85.3306 46.0161 81.3817 49.9484 81.3817 54.8013C81.3817 59.6542 85.3306 63.5865 90.2013 63.5865C95.0721 63.5865 99.0237 59.6515 99.0237 54.8013C99.0237 49.9511 95.0748 46.0161 90.2013 46.0161Z" fill="#F1F0E6"/>
</g>
<path id="Vector_8" d="M81.3537 90.5753C76.9903 91.5082 72.3346 92.0001 67.5028 92.0001C62.6711 92.0001 58.0153 91.5082 53.652 90.5753C52.5307 90.3378 51.7925 89.2608 51.9288 88.13L52.9849 79.361C53.4788 75.3581 56.1161 72.0874 59.6676 70.657C61.8137 72.3899 64.5391 73.4273 67.5028 73.4273C70.4666 73.4273 73.1919 72.3899 75.3381 70.657C78.8895 72.0902 81.5354 75.3581 82.0123 79.361L83.0769 88.13C83.2131 89.2608 82.4722 90.3378 81.3537 90.5753Z" fill="#F1F0E6"/>
<path id="Vector_9" d="M67.5 51.759C62.3702 51.759 58.2112 55.9004 58.2112 61.0115C58.2112 66.1225 62.3702 70.2639 67.5 70.2639C72.6298 70.2639 76.7916 66.1197 76.7916 61.0115C76.7916 55.9033 72.6327 51.759 67.5 51.759Z" fill="#F1F0E6"/>
</g>
</g>
</svg>
