<svg width="126" height="131" viewBox="0 0 126 131" fill="none" xmlns="http://www.w3.org/2000/svg">
<g id="peoples">
<path id="Vector" d="M28.4545 78.9297C27.2572 105.067 47.4753 127.227 73.6131 128.424C99.7508 129.622 121.91 109.403 123.108 83.2656C124.305 57.1279 104.087 34.9685 77.949 33.7711C51.8113 32.5738 29.6518 52.792 28.4545 78.9297Z" fill="#E98943"/>
<g id="Group">
<path id="Vector_2" d="M6.00636 15.8249C3.19617 12.7449 3.41499 7.96833 6.49501 5.15814C9.57502 2.34795 14.3516 2.56674 17.1618 5.64676C19.9719 8.72677 19.7531 13.5033 16.6731 16.3135C13.5931 19.1237 8.81655 18.9049 6.00636 15.8249Z" fill="#E98943"/>
<path id="Vector_3" d="M74.4305 82.3325L77.1352 79.8648L12.9364 9.50196L10.2317 11.9697L74.4305 82.3325Z" fill="#E98943"/>
</g>
<g id="Group 237">
<g id="Group_2">
<path id="Vector_4" d="M66.3235 79.3615C62.7924 81.3746 60.2559 84.9741 59.7276 89.258L59.0322 94.9993C57.3205 95.1416 55.5765 95.2087 53.8029 95.2087C49.2151 95.2087 44.8026 94.7416 40.6515 93.8559C39.5868 93.6304 38.886 92.6078 39.0154 91.5341L40.0262 83.2079C40.4871 79.4072 42.9912 76.3097 46.3633 74.9435C48.4011 76.5888 50.9888 77.5739 53.8029 77.5739C56.617 77.5739 59.2128 76.5888 61.2506 74.9515C63.3854 75.8077 65.1806 77.3645 66.3208 79.3615H66.3235Z" fill="#F1F0E6"/>
<path id="Vector_5" d="M53.8082 57C48.9375 57 44.9886 60.9322 44.9886 65.7852C44.9886 70.6381 48.9375 74.5703 53.8082 74.5703C58.679 74.5703 62.6306 70.6354 62.6306 65.7852C62.6306 60.9349 58.6817 57 53.8082 57Z" fill="#F1F0E6"/>
<path id="Vector_6" d="M112.357 93.8558C108.214 94.7416 103.802 95.2087 99.214 95.2087C97.4404 95.2087 95.691 95.1416 93.9766 94.9993L93.2812 89.266C92.7744 84.9821 90.2407 81.3854 86.7015 79.3642C87.8417 77.3645 89.6288 75.8104 91.7636 74.9542C93.8014 76.5915 96.3891 77.5766 99.2032 77.5766C102.017 77.5766 104.613 76.5915 106.651 74.9461C110.023 76.307 112.535 79.4098 112.988 83.2106L113.991 91.5368C114.126 92.6104 113.425 93.6331 112.355 93.8585L112.357 93.8558Z" fill="#F1F0E6"/>
<path id="Vector_7" d="M99.2086 57C94.3378 57 90.3889 60.9322 90.3889 65.7852C90.3889 70.6381 94.3378 74.5703 99.2086 74.5703C104.079 74.5703 108.031 70.6354 108.031 65.7852C108.031 60.9349 104.082 57 99.2086 57Z" fill="#F1F0E6"/>
</g>
<path id="Vector_8" d="M90.3609 101.559C85.9976 102.492 81.3419 102.984 76.5101 102.984C71.6783 102.984 67.0226 102.492 62.6593 101.559C61.5379 101.322 60.7998 100.245 60.9361 99.1139L61.9921 90.3448C62.4861 86.3419 65.1234 83.0712 68.6748 81.6408C70.821 83.3737 73.5463 84.4112 76.5101 84.4112C79.4739 84.4112 82.1992 83.3737 84.3454 81.6408C87.8968 83.074 90.5426 86.3419 91.0195 90.3448L92.0841 99.1139C92.2204 100.245 91.4794 101.322 90.3609 101.559Z" fill="#F1F0E6"/>
<path id="Vector_9" d="M76.5073 62.743C71.3774 62.743 67.2185 66.8844 67.2185 71.9954C67.2185 77.1064 71.3774 81.2479 76.5073 81.2479C81.6371 81.2479 85.7989 77.1036 85.7989 71.9954C85.7989 66.8872 81.6399 62.743 76.5073 62.743Z" fill="#F1F0E6"/>
</g>
</g>
</svg>
