<svg width="170" height="134" viewBox="0 0 170 134" fill="none" xmlns="http://www.w3.org/2000/svg">
<g id="Group 242">
<g id="Group 234">
<path id="Vector" d="M100.612 33.5C82.1105 14.9985 52.1136 14.9985 33.6121 33.5C15.1105 52.0015 15.1105 81.9985 33.6121 100.5C52.1136 119.002 82.1105 119.002 100.612 100.5C119.114 81.9985 119.114 52.0015 100.612 33.5Z" fill="#B52A0C"/>
<g id="Group">
<path id="Vector_2" d="M162.359 59.4504C166.529 59.4504 169.91 62.8315 169.91 67.0008C169.91 71.1702 166.529 74.5513 162.359 74.5513C158.19 74.5513 154.809 71.1702 154.809 67.0008C154.809 62.8315 158.19 59.4504 162.359 59.4504Z" fill="#B52A0C"/>
<path id="Vector_3" d="M67.1101 65.1703L67.1101 68.8315L162.359 68.8315L162.359 65.1703L67.1101 65.1703Z" fill="#B52A0C"/>
</g>
</g>
<path id="Vector_4" d="M67.6109 43H67.6759M61.1109 62.2857H67.6109V88H74.1109" stroke="#F1F0E6" stroke-width="10" stroke-linecap="round" stroke-linejoin="round"/>
</g>
</svg>
