<svg width="96" height="151" viewBox="0 0 96 151" fill="none" xmlns="http://www.w3.org/2000/svg">
<path d="M48 55.4216C21.8348 55.4216 0.623793 76.6326 0.623791 102.798C0.623789 128.963 21.8348 150.174 47.9999 150.174C74.1651 150.174 95.3761 128.963 95.3761 102.798C95.3761 76.6326 74.1651 55.4216 48 55.4216Z" fill="#E98943"/>
<path d="M40.4501 7.5504C40.4501 3.38103 43.8312 -2.67738e-05 48.0006 -2.64093e-05C52.17 -2.60448e-05 55.551 3.38103 55.551 7.55041C55.551 11.7198 52.1699 15.1009 48.0006 15.1009C43.8312 15.1009 40.4501 11.7198 40.4501 7.5504Z" fill="#E98943"/>
<path d="M46.17 102.8L49.8312 102.8L49.8312 7.55045L46.17 7.55045L46.17 102.8Z" fill="#E98943"/>
<path d="M48.5 79H48.565M42 98.2857H48.5V124H55" stroke="#3F3F3F" stroke-width="10" stroke-linecap="round" stroke-linejoin="round"/>
</svg>
