<svg width="209" height="217" viewBox="0 0 209 217" fill="none" xmlns="http://www.w3.org/2000/svg">
<g id="Group 209">
<g id="Group">
<path id="Vector" d="M64.9127 175.127C62.4665 178.503 57.7449 179.258 54.3685 176.811C50.9921 174.365 50.2378 169.644 52.6839 166.267C55.1301 162.891 59.8518 162.137 63.2282 164.583C66.6045 167.029 67.3589 171.751 64.9127 175.127Z" fill="#B52A0C"/>
<path id="Vector_2" d="M116.163 94.6381L113.198 92.49L57.3159 169.623L60.2808 171.771L116.163 94.6381Z" fill="#B52A0C"/>
</g>
<path id="Vector_3" d="M122.154 140.349C147.992 136.221 165.591 111.929 161.463 86.0916C157.335 60.2541 133.044 42.655 107.206 46.7828C81.3687 50.9106 63.7696 75.2022 67.8974 101.04C72.0252 126.877 96.3169 144.476 122.154 140.349Z" fill="#B52A0C"/>
<g id="Group 239">
<path id="Vector_4" d="M106.696 122.967C106.696 123.614 106.983 124.226 107.479 124.64L109.717 126.503C110.106 126.825 110.594 127.003 111.1 127.003L118.065 127.003C118.571 127.003 119.058 126.825 119.447 126.503L121.685 124.64C122.181 124.226 122.468 123.614 122.468 122.967L122.468 118.888L106.696 118.888L106.696 122.967Z" fill="#F1F0E6"/>
<path id="Vector_5" d="M114.582 69.6743C115.826 69.6743 116.836 68.6616 116.836 67.4133L116.836 61.261C116.836 60.0127 115.826 59 114.582 59C113.338 59 112.328 60.0127 112.328 61.261L112.328 67.4133C112.328 68.6616 113.338 69.6743 114.582 69.6743Z" fill="#F1F0E6"/>
<path id="Vector_6" d="M99.5774 72.0662C99.9948 72.791 100.751 73.1967 101.531 73.1967C101.912 73.1967 102.301 73.0998 102.656 72.8931C103.733 72.2677 104.103 70.8859 103.48 69.8052L100.412 64.4772C99.7913 63.3964 98.4113 63.0248 97.334 63.6502C96.2566 64.2731 95.8862 65.6574 96.5097 66.7382L99.5774 72.0662Z" fill="#F1F0E6"/>
<path id="Vector_7" d="M85.5432 79.4169L90.8543 82.4944C91.209 82.7011 91.5951 82.798 91.9786 82.798C92.7559 82.798 93.515 82.3923 93.9324 81.6675C94.5533 80.5867 94.1854 79.205 93.1081 78.5795L87.797 75.5021C86.7196 74.874 85.3423 75.2456 84.7189 76.329C84.098 77.4098 84.4658 78.7915 85.5432 79.4169Z" fill="#F1F0E6"/>
<path id="Vector_8" d="M90.7525 93.6399C90.7525 92.3916 89.743 91.3789 88.4987 91.3789L82.3659 91.3789C81.1216 91.3789 80.1121 92.3916 80.1121 93.6399C80.1121 94.8882 81.1216 95.9009 82.3659 95.9009L88.4987 95.9009C89.743 95.9009 90.7525 94.8882 90.7525 93.6399Z" fill="#F1F0E6"/>
<path id="Vector_9" d="M90.8856 104.775L85.5745 107.852C84.4972 108.478 84.1268 109.859 84.7502 110.94C85.1676 111.665 85.9241 112.071 86.7041 112.071C87.0875 112.071 87.4736 111.974 87.8284 111.767L93.1395 108.692C94.2168 108.067 94.5872 106.685 93.9638 105.604C93.3403 104.523 91.9656 104.154 90.8856 104.777L90.8856 104.775Z" fill="#F1F0E6"/>
<path id="Vector_10" d="M143.681 107.8L138.37 104.725C137.293 104.1 135.915 104.474 135.292 105.552C134.671 106.633 135.039 108.015 136.116 108.64L141.427 111.717C141.782 111.922 142.168 112.021 142.552 112.021C143.331 112.021 144.088 111.615 144.505 110.891C145.126 109.81 144.758 108.428 143.681 107.803L143.681 107.8Z" fill="#F1F0E6"/>
<path id="Vector_11" d="M146.858 91.3186L140.726 91.3186C139.481 91.3186 138.472 92.3313 138.472 93.5796C138.472 94.8279 139.481 95.8406 140.726 95.8406L146.858 95.8406C148.103 95.8406 149.112 94.8279 149.112 93.5796C149.112 92.3313 148.103 91.3186 146.858 91.3186Z" fill="#F1F0E6"/>
<path id="Vector_12" d="M137.214 82.7457C137.598 82.7457 137.984 82.6489 138.339 82.4421L143.65 79.3647C144.727 78.7418 145.097 77.3575 144.474 76.2767C143.853 75.196 142.473 74.8244 141.396 75.4498L136.085 78.5273C135.007 79.1501 134.637 80.5344 135.26 81.6152C135.678 82.3401 136.434 82.7457 137.214 82.7457Z" fill="#F1F0E6"/>
<path id="Vector_13" d="M126.516 72.8643C126.871 73.071 127.257 73.1679 127.641 73.1679C128.421 73.1679 129.177 72.7622 129.595 72.0374L132.662 66.7094C133.286 65.6286 132.915 64.2469 131.838 63.6214C130.761 62.996 129.383 63.3676 128.76 64.4484L125.692 69.7764C125.071 70.8571 125.439 72.2389 126.516 72.8643Z" fill="#F1F0E6"/>
<path id="Vector_14" d="M119.57 95.5685C119.57 91.5621 116.239 88.0031 114.585 86.4827C112.931 88.0083 109.594 91.5804 109.594 95.5685C109.594 98.5439 111.449 101.286 113.08 103.121L113.08 96.2751C113.08 95.4429 113.753 94.7678 114.582 94.7678C115.412 94.7678 116.085 95.4429 116.085 96.2751L116.085 103.121C117.715 101.286 119.57 98.5439 119.57 95.5685Z" fill="#F1F0E6"/>
<path id="Vector_15" d="M112.485 75.3399C104.109 76.2689 97.334 82.9865 96.3219 91.3788C95.4402 98.7009 98.8366 105.306 104.335 109.011C105.781 109.985 106.696 111.576 106.696 113.324L106.696 114.845L113.079 114.845L113.079 107.347C111.379 105.884 106.589 101.268 106.589 95.5685C106.589 88.7855 113.382 83.5203 113.672 83.3005C114.209 82.8896 114.952 82.8896 115.49 83.3005C115.779 83.5203 122.572 88.7855 122.572 95.5685C122.572 101.271 117.783 105.887 116.082 107.347L116.082 114.845L122.465 114.845L122.465 113.379C122.465 111.668 123.279 110.035 124.701 109.093C129.686 105.79 132.978 100.122 132.978 93.6791C132.978 82.7928 123.582 74.1073 112.482 75.3373L112.485 75.3399Z" fill="#F1F0E6"/>
</g>
</g>
</svg>
