<svg width="135" height="170" viewBox="0 0 135 170" fill="none" xmlns="http://www.w3.org/2000/svg">
<g id="Group 207">
<g id="Group">
<path id="Vector" d="M59.5622 7.55037C59.5622 3.381 62.9433 -5.72914e-05 67.1127 -5.69269e-05C71.282 -5.65624e-05 74.6631 3.381 74.6631 7.55038C74.6631 11.7197 71.282 15.1008 67.1127 15.1008C62.9433 15.1008 59.5622 11.7197 59.5622 7.55037Z" fill="#B52A0C"/>
<path id="Vector_2" d="M65.282 102.8L68.9433 102.8L68.9433 7.55035L65.282 7.55035L65.282 102.8Z" fill="#B52A0C"/>
</g>
<path id="Vector_3" d="M33.6121 69.2976C15.1105 87.7991 15.1105 117.796 33.6121 136.298C52.1136 154.799 82.1105 154.799 100.612 136.298C119.114 117.796 119.114 87.7991 100.612 69.2976C82.1105 50.7961 52.1136 50.7961 33.6121 69.2976Z" fill="#B52A0C"/>
<g id="Group 238">
<path id="Vector_4" d="M67.1134 79.4272C68.6484 79.4272 69.8912 78.1844 69.8912 76.6494V70.7778C69.8912 69.2428 68.6484 68 67.1134 68C65.5784 68 64.3356 69.2428 64.3356 70.7778V76.6468C64.3356 78.1817 65.5784 79.4246 67.1134 79.4246V79.4272Z" fill="#F1F0E6"/>
<path id="Vector_5" d="M46.5136 86.3318C47.0554 86.8735 47.7671 87.147 48.4788 87.147C49.1905 87.147 49.9022 86.8762 50.4439 86.3318C51.5301 85.2456 51.5301 83.4876 50.4439 82.4014L46.2932 78.2507C45.207 77.1645 43.449 77.1645 42.3628 78.2507C41.2767 79.3368 41.2767 81.0948 42.3628 82.181L46.5136 86.3318Z" fill="#F1F0E6"/>
<path id="Vector_6" d="M43.5393 102.999C43.5393 101.464 42.2964 100.221 40.7615 100.221H34.8898C33.3549 100.221 32.112 101.464 32.112 102.999C32.112 104.534 33.3549 105.777 34.8898 105.777H40.7588C42.2938 105.777 43.5366 104.534 43.5366 102.999H43.5393Z" fill="#F1F0E6"/>
<path id="Vector_7" d="M46.5136 119.668L42.3628 123.819C41.2767 124.905 41.2767 126.663 42.3628 127.749C42.9046 128.291 43.6163 128.565 44.328 128.565C45.0397 128.565 45.7514 128.294 46.2932 127.749L50.4439 123.598C51.5301 122.512 51.5301 120.754 50.4439 119.668C49.3578 118.582 47.5997 118.582 46.5136 119.668Z" fill="#F1F0E6"/>
<path id="Vector_8" d="M67.1134 126.573C65.5784 126.573 64.3356 127.816 64.3356 129.351V135.22C64.3356 136.754 65.5784 137.997 67.1134 137.997C68.6483 137.997 69.8912 136.754 69.8912 135.22V129.351C69.8912 127.816 68.6483 126.573 67.1134 126.573Z" fill="#F1F0E6"/>
<path id="Vector_9" d="M87.7105 119.668C86.6244 118.582 84.8663 118.582 83.7802 119.668C82.694 120.754 82.694 122.512 83.7802 123.598L87.9309 127.749C88.4727 128.291 89.1844 128.565 89.8961 128.565C90.6078 128.565 91.3195 128.294 91.8613 127.749C92.9474 126.663 92.9474 124.905 91.8613 123.819L87.7105 119.668Z" fill="#F1F0E6"/>
<path id="Vector_10" d="M99.3316 100.221H93.4626C91.9277 100.221 90.6848 101.464 90.6848 102.999C90.6848 104.534 91.9277 105.777 93.4626 105.777H99.3316C100.867 105.777 102.109 104.534 102.109 102.999C102.109 101.464 100.867 100.221 99.3316 100.221Z" fill="#F1F0E6"/>
<path id="Vector_11" d="M85.7453 87.1446C86.4571 87.1446 87.1688 86.8737 87.7105 86.3293L91.8613 82.1786C92.9474 81.0924 92.9474 79.3344 91.8613 78.2482C90.7751 77.1621 89.0171 77.1621 87.9309 78.2482L83.7802 82.399C82.694 83.4851 82.694 85.2432 83.7802 86.3293C84.3219 86.8711 85.0336 87.1446 85.7453 87.1446Z" fill="#F1F0E6"/>
<path id="Vector_12" d="M67.1134 83.825C56.5413 83.825 47.9397 92.4266 47.9397 102.999C47.9397 113.571 56.5413 122.172 67.1134 122.172C77.6855 122.172 86.2871 113.571 86.2871 102.999C86.2871 92.4266 77.6855 83.825 67.1134 83.825ZM74.7351 101.626L67.9579 114.333C67.1479 115.852 64.8455 115.273 64.8508 113.55L64.872 106.887C64.872 106.539 64.564 106.273 64.2214 106.326L61.1966 106.78C59.8529 106.982 58.8543 105.567 59.4944 104.369L66.2715 91.6617C67.0815 90.1427 69.384 90.7216 69.3786 92.4452L69.3574 99.1082C69.3574 99.456 69.6655 99.7216 70.008 99.6685L73.0301 99.2144C74.3739 99.0126 75.3724 100.428 74.7324 101.626H74.7351Z" fill="#F1F0E6"/>
</g>
</g>
</svg>
