<svg width="53" height="58" viewBox="0 0 53 58" fill="none" xmlns="http://www.w3.org/2000/svg">
<g id="_&#195;&#142;&#195;&#147;&#195;&#136;_1" clip-path="url(#clip0_1118_12)">
<path id="Vector" fill-rule="evenodd" clip-rule="evenodd" d="M53 16.3173L46.4529 16.5107C45.5176 13.6493 47.0375 7.424 47.9338 4.44667L52.2206 4.25333L53 16.3173ZM36.1647 41.064L40.7632 25.288L44.0757 24.36L38.0743 44.5827L11.7691 43.3067C11.6522 49.2227 13.0551 53.7467 17.264 58.0387H42.0493L45.6735 57.9613L52.6103 19.488L45.6346 19.372L45.2059 20.7253L41.9324 21.692L43.2184 17.5547L28.6044 15.6213L21.5118 21.112L9.97647 18.5987L3.58529 9.78267L0.740441 11.5613L3.39044 18.2507L0 20.6867L1.90956 23.316L5.22206 20.9573L11.5353 26.3707L14.3801 24.5533L13.7566 23.664L21.0051 25.636L25.8375 26.0613V26.216L23.6941 27.2213L23.1485 30.044L24.8632 29.6573L24.7463 30.2373L4.16985 34.568L0.389706 56.376L6.66397 56.9947L10.5221 40.1747L36.1647 41.064ZM37.6066 0C41.5426 0 44.7772 3.17067 44.7772 7.11467C44.7772 11.0587 41.5816 14.2293 37.6066 14.2293C33.6316 14.2293 30.436 11.0587 30.436 7.11467C30.436 3.17067 33.6316 0 37.6066 0Z" fill="#F1F0E6"/>
</g>
<defs>
<clipPath id="clip0_1118_12">
<rect width="53" height="58" fill="white"/>
</clipPath>
</defs>
</svg>
