<svg width="170" height="134" viewBox="0 0 170 134" fill="none" xmlns="http://www.w3.org/2000/svg">
<path d="M162.359 59.4499C166.529 59.4499 169.91 62.831 169.91 67.0003C169.91 71.1697 166.529 74.5508 162.359 74.5508C158.19 74.5508 154.809 71.1697 154.809 67.0003C154.809 62.831 158.19 59.4499 162.359 59.4499Z" fill="#B52A0C"/>
<path d="M67.1101 65.1698L67.1101 68.8311L162.359 68.8311L162.359 65.1698L67.1101 65.1698Z" fill="#B52A0C"/>
<path d="M100.612 33.5C82.1105 14.9985 52.1136 14.9985 33.6121 33.5C15.1105 52.0015 15.1105 81.9985 33.6121 100.5C52.1136 119.002 82.1105 119.002 100.612 100.5C119.114 81.9985 119.114 52.0015 100.612 33.5Z" fill="#B52A0C"/>
<path d="M61.3129 73.7508H74.0883L71.7999 62.6084H63.6925L61.3129 73.7508Z" fill="#F1F0E6"/>
<path d="M60.5134 77.4966L58.1337 88.639H77.144L74.8583 77.4966H60.5134Z" fill="#F1F0E6"/>
<path d="M85.0448 63.3948C84.7953 62.9111 84.3017 62.6084 83.7598 62.6084H75.5987L77.8871 73.7508H90.3782L85.0448 63.3948Z" fill="#F1F0E6"/>
<path d="M38.2757 86.5094C37.7767 87.4796 38.4742 88.639 39.5607 88.639H54.3322L56.7119 77.4966H42.9169L38.2757 86.5094Z" fill="#F1F0E6"/>
<path d="M96.9484 86.5094L92.3072 77.4966H78.6571L80.9455 88.639H95.666C96.7499 88.639 97.4501 87.4796 96.9511 86.5094H96.9484Z" fill="#F1F0E6"/>
<path d="M51.4643 62.6084C50.925 62.6084 50.4287 62.9111 50.1792 63.3948L44.8458 73.7508H57.5086L59.8882 62.6084H51.4643Z" fill="#F1F0E6"/>
<path d="M53.6696 98.2542H50.6219V91.6357H46.9036V98.2542H43.8559C43.2979 98.2542 42.8472 98.7082 42.8472 99.2703V100.986C42.8472 101.549 43.2979 102.003 43.8559 102.003H53.6669C54.2222 102.003 54.6756 101.549 54.6756 100.986V99.2703C54.6756 98.7082 54.2249 98.2542 53.6669 98.2542H53.6696Z" fill="#F1F0E6"/>
<path d="M91.3682 98.2542H88.3205V91.6357H84.6022V98.2542H81.5545C80.9992 98.2542 80.5458 98.7082 80.5458 99.2703V100.986C80.5458 101.549 80.9965 102.003 81.5545 102.003H91.3655C91.9235 102.003 92.3742 101.549 92.3742 100.986V99.2703C92.3742 98.7082 91.9235 98.2542 91.3655 98.2542H91.3682Z" fill="#F1F0E6"/>
<path d="M67.944 49.8367C71.249 49.6523 73.7798 46.8039 73.5968 43.4747C73.4138 40.1454 70.5862 37.596 67.2812 37.7804C63.9762 37.9648 61.4454 40.8132 61.6284 44.1424C61.8115 47.4717 64.6391 50.0211 67.944 49.8367Z" fill="#F1F0E6"/>
<path d="M67.6121 35.4914C68.4679 35.4914 69.1627 34.7915 69.1627 33.9294V30.562C69.1627 29.6999 68.4705 29 67.6121 29C66.7536 29 66.0614 29.6999 66.0614 30.562V33.9321C66.0614 34.7942 66.7562 35.4941 67.6121 35.4941V35.4914Z" fill="#F1F0E6"/>
<path d="M59.5824 37.9266C59.8856 38.232 60.2826 38.3833 60.677 38.3833C61.0714 38.3833 61.4711 38.232 61.7716 37.9266C62.3779 37.3158 62.3779 36.3294 61.7716 35.7186L59.4054 33.335C58.7991 32.7243 57.8198 32.7243 57.2135 33.335C56.6072 33.9458 56.6072 34.9322 57.2135 35.543L59.5797 37.9266H59.5824Z" fill="#F1F0E6"/>
<path d="M54.461 45.3692H57.8064C58.6623 45.3692 59.3571 44.6693 59.3571 43.8072C59.3571 42.9451 58.6649 42.2451 57.8064 42.2451H54.461C53.6052 42.2451 52.9103 42.9451 52.9103 43.8072C52.9103 44.6693 53.6025 45.3692 54.461 45.3692Z" fill="#F1F0E6"/>
<path d="M59.5824 49.6905L57.2162 52.0741C56.6099 52.6849 56.6099 53.6713 57.2162 54.282C57.5194 54.5874 57.9164 54.7388 58.3108 54.7388C58.7052 54.7388 59.1049 54.5874 59.4054 54.282L61.7716 51.8984C62.3779 51.2877 62.3779 50.3013 61.7716 49.6905C61.1653 49.0797 60.1861 49.0797 59.5797 49.6905H59.5824Z" fill="#F1F0E6"/>
<path d="M66.0641 53.6875V57.0576C66.0641 57.9197 66.7589 58.6196 67.6147 58.6196C68.4706 58.6196 69.1654 57.9197 69.1654 57.0576V53.6875C69.1654 52.8254 68.4732 52.1255 67.6147 52.1255C66.7562 52.1255 66.0641 52.8254 66.0641 53.6875Z" fill="#F1F0E6"/>
<path d="M75.6416 49.6905C75.0353 49.0797 74.0561 49.0797 73.4498 49.6905C72.8435 50.3013 72.8435 51.2877 73.4498 51.8984L75.816 54.282C76.1192 54.5874 76.5162 54.7388 76.9106 54.7388C77.305 54.7388 77.7047 54.5874 78.0052 54.282C78.6115 53.6713 78.6115 52.6849 78.0052 52.0741L75.639 49.6905H75.6416Z" fill="#F1F0E6"/>
<path d="M80.7631 42.2476H77.4177C76.5618 42.2476 75.867 42.9475 75.867 43.8096C75.867 44.6717 76.5618 45.3717 77.4177 45.3717H80.7631C81.6189 45.3717 82.3138 44.6717 82.3138 43.8096C82.3138 42.9475 81.6216 42.2476 80.7631 42.2476Z" fill="#F1F0E6"/>
<path d="M74.5471 38.3857C74.9441 38.3857 75.3412 38.2344 75.6416 37.929L78.0079 35.5454C78.6142 34.9346 78.6142 33.9482 78.0079 33.3375C77.4015 32.7267 76.4223 32.7267 75.816 33.3375L73.4498 35.7211C72.8435 36.3318 72.8435 37.3183 73.4498 37.929C73.7529 38.2344 74.15 38.3857 74.5444 38.3857H74.5471Z" fill="#F1F0E6"/>
</svg>
