<svg width="96" height="151" viewBox="0 0 96 151" fill="none" xmlns="http://www.w3.org/2000/svg">
<path d="M48 55.4216C21.8348 55.4216 0.623793 76.6326 0.623791 102.798C0.623789 128.963 21.8348 150.174 47.9999 150.174C74.1651 150.174 95.3761 128.963 95.3761 102.798C95.3761 76.6326 74.1651 55.4216 48 55.4216Z" fill="#E98943"/>
<path d="M40.4501 7.55044C40.4501 3.38106 43.8312 3.74379e-06 48.0006 4.10829e-06C52.17 4.47279e-06 55.551 3.38107 55.551 7.55044C55.551 11.7198 52.1699 15.1009 48.0006 15.1009C43.8312 15.1009 40.4501 11.7198 40.4501 7.55044Z" fill="#E98943"/>
<path d="M46.17 102.8L49.8312 102.8L49.8312 7.55045L46.17 7.55045L46.17 102.8Z" fill="#E98943"/>
<g clip-path="url(#clip0_2293_9)">
<path d="M49.5131 121.362C53.5649 114.579 64.4581 95.7048 64.4581 88.3518C64.4581 79.3173 57.0932 72 48 72C38.9067 72 31.5418 79.3173 31.5418 88.3518C31.5418 95.6977 42.435 114.579 46.4868 121.362C47.1824 122.509 48.8175 122.509 49.5131 121.362ZM40.7569 87.7676C40.6924 83.8631 44.0271 80.493 47.9713 80.4787C51.9801 80.4645 55.243 83.6778 55.243 87.6607C55.243 91.6436 51.9944 94.857 48 94.857C44.0056 94.857 40.8215 91.7077 40.7569 87.7676Z" fill="#F1F0E6"/>
<path d="M54.5044 115.847C53.9307 116.845 53.3785 117.821 52.8406 118.74C59.4239 119.417 62.9163 121.341 62.9163 122.217C62.9163 123.307 57.6956 125.936 48 125.936C38.3044 125.936 33.0837 123.3 33.0837 122.217C33.0837 121.348 36.5833 119.417 43.1594 118.74C42.6215 117.821 42.0622 116.845 41.4956 115.847C35.2422 116.674 30 118.726 30 122.217C30 126.87 39.3371 129 48 129C56.6629 129 66 126.87 66 122.217C66 118.726 60.7578 116.674 54.5044 115.847Z" fill="#F1F0E6"/>
</g>
<defs>
<clipPath id="clip0_2293_9">
<rect width="36" height="57" fill="white" transform="translate(30 72)"/>
</clipPath>
</defs>
</svg>
