<svg width="135" height="170" viewBox="0 0 135 170" fill="none" xmlns="http://www.w3.org/2000/svg">
<path d="M74.6619 162.247C74.6619 166.417 71.2809 169.798 67.1115 169.798C62.9421 169.798 59.561 166.417 59.561 162.247C59.561 158.078 62.9421 154.697 67.1115 154.697C71.2809 154.697 74.6619 158.078 74.6619 162.247Z" fill="#B52A0C"/>
<path d="M68.9421 66.998H65.2808L65.2808 162.247H68.9421L68.9421 66.998Z" fill="#B52A0C"/>
<path d="M100.612 100.5C119.114 81.9985 119.114 52.0015 100.612 33.5C82.1105 14.9985 52.1136 14.9985 33.6121 33.5C15.1105 52.0015 15.1105 81.9985 33.6121 100.5C52.1136 119.002 82.1105 119.002 100.612 100.5Z" fill="#B52A0C"/>
<path d="M88.7772 64.167L86.3445 45.6971C85.9043 42.3545 83.4207 39.7281 80.2514 39.0049C78.9816 38.7147 78.1344 38.8322 77.0452 38.805L73.0463 34.9899C72.8797 34.8304 72.6578 34.7418 72.4263 34.7418H61.0241C60.7934 34.7418 60.5716 34.8304 60.4041 34.9899L56.4043 38.805H54.9687C50.9882 38.805 47.625 41.7532 47.1059 45.6971L44.6723 64.167C44.6267 64.5097 44.6048 64.856 44.6048 65.2023V84.1937C44.6048 86.2959 45.4397 88.313 46.9279 89.7989L48.6669 91.5382C50.1542 93.0241 52.1712 93.8604 54.2741 93.8604H56.1526L50.5304 104.689C50.3024 105.13 50.4734 105.67 50.9136 105.899C51.0461 105.968 51.1872 106 51.3267 106C51.6512 106 51.9642 105.824 52.1238 105.516L53.8041 102.28H79.6454L81.3257 105.516C81.4853 105.824 81.7984 106 82.1228 106C82.2623 106 82.4035 105.968 82.5359 105.899C82.9761 105.671 83.1471 105.13 82.9191 104.689L77.2969 93.8604H79.1745C81.2774 93.8604 83.2953 93.0241 84.7818 91.5382L86.5217 89.7989C88.0081 88.313 88.8447 86.2959 88.8447 84.1937V65.2023C88.8447 64.856 88.8219 64.5097 88.7763 64.167H88.7772ZM81.1099 48.4971L83.2225 64.5299C83.3927 65.8203 82.3877 66.9669 81.0845 66.9669H67.6232V46.1924H78.4817C79.8068 46.1924 80.9372 47.1822 81.1099 48.4962V48.4971ZM60.4532 41.5927C60.6856 41.3604 61.0057 41.2167 61.36 41.2167H72.0922C72.8008 41.2167 73.3752 41.7908 73.3752 42.4992C73.3752 42.8525 73.2313 43.1733 72.999 43.4056C72.7666 43.6379 72.4456 43.7817 72.0922 43.7817H61.36C60.6514 43.7817 60.077 43.2075 60.077 42.4992C60.077 42.1459 60.2208 41.825 60.4532 41.5927ZM50.2287 64.529L52.3413 48.4971C52.5141 47.183 53.6445 46.1933 54.9704 46.1933H65.8289V66.9669H52.3668C51.0636 66.9661 50.0586 65.8194 50.2287 64.529ZM51.7757 86.8876C49.8771 86.8876 48.338 85.35 48.338 83.4512C48.338 81.5524 49.8771 80.0157 51.7757 80.0157C53.6743 80.0157 55.2134 81.5533 55.2134 83.4512C55.2134 85.3491 53.6743 86.8876 51.7757 86.8876ZM54.7372 100.486L55.7588 98.5188H77.6951L78.7167 100.486H54.7381H54.7372ZM75.5 94.2917L76.7629 96.7243H56.6902L57.9477 94.3013C58.0249 94.1646 58.0635 94.012 58.0635 93.8604H75.3895C75.3895 94.0085 75.4264 94.1567 75.5 94.2917ZM81.6765 86.8876C79.7778 86.8876 78.2388 85.35 78.2388 83.4512C78.2388 81.5524 79.7778 80.0157 81.6765 80.0157C83.5751 80.0157 85.1141 81.5533 85.1141 83.4512C85.1141 85.3491 83.5751 86.8876 81.6765 86.8876Z" fill="#F1F0E6"/>
<path d="M94.7922 93.0644C94.5238 93.0644 94.2546 92.9662 94.0441 92.7681C93.6048 92.3552 93.5837 91.6635 93.9968 91.2243C100.547 84.2638 104.154 75.1635 104.154 65.5994C104.154 56.0353 100.261 46.21 93.1917 39.1434C86.1226 32.0768 76.7233 28.1855 66.726 28.1855C56.7287 28.1855 47.3295 32.0768 40.2603 39.1434C33.1903 46.2091 29.2974 55.6049 29.2974 65.5985C29.2974 75.5921 32.9044 84.2629 39.4544 91.2234C39.8674 91.6626 39.8464 92.3543 39.407 92.7672C38.9677 93.1801 38.2757 93.159 37.8627 92.7198C30.9303 85.3526 27.1121 75.721 27.1121 65.5985C27.1121 55.476 31.2329 45.0773 38.7142 37.5979C46.1964 30.1193 56.1438 26 66.7251 26C77.3065 26 87.2547 30.1193 94.7361 37.5979C102.218 45.0773 106.338 55.021 106.338 65.5985C106.338 76.176 102.52 85.3526 95.5876 92.7198C95.3727 92.9486 95.0825 93.0635 94.7913 93.0635L94.7922 93.0644Z" fill="#F1F0E6"/>
<path d="M94.7922 93.0644C94.5238 93.0644 94.2546 92.9662 94.0441 92.7681C93.6048 92.3552 93.5837 91.6635 93.9968 91.2243C100.547 84.2638 104.154 75.1635 104.154 65.5994C104.154 56.0353 100.261 46.21 93.1917 39.1434C86.1226 32.0768 76.7233 28.1855 66.726 28.1855C56.7287 28.1855 47.3295 32.0768 40.2603 39.1434C33.1903 46.2091 29.2974 55.6049 29.2974 65.5985C29.2974 75.5921 32.9044 84.2629 39.4544 91.2234C39.8674 91.6626 39.8464 92.3543 39.407 92.7672C38.9677 93.1801 38.2757 93.159 37.8627 92.7198C30.9303 85.3526 27.1121 75.721 27.1121 65.5985C27.1121 55.476 31.2329 45.0773 38.7142 37.5979C46.1964 30.1193 56.1438 26 66.7251 26C77.3065 26 87.2547 30.1193 94.7361 37.5979C102.218 45.0773 106.338 55.021 106.338 65.5985C106.338 76.176 102.52 85.3526 95.5876 92.7198C95.3727 92.9486 95.0825 93.0635 94.7913 93.0635L94.7922 93.0644Z" fill="#F1F0E6"/>
</svg>
