<svg width="40" height="62" viewBox="0 0 40 62" fill="none" xmlns="http://www.w3.org/2000/svg">
<g clip-path="url(#clip0_1115_6954)">
<path d="M39.1583 17.3336H38.3172V12.2188C38.3172 10.9791 37.8773 9.82365 37.13 8.9146C36.3833 8.00554 35.3286 7.34291 34.0989 7.0869C30.5773 6.35377 27.0134 5.89855 23.4383 5.71989L24.4508 1.46553H24.4792C24.9649 1.46553 25.4354 1.6264 25.7685 1.90637L27.4388 3.30966C27.751 3.57252 28.2201 3.53555 28.4866 3.22683C28.753 2.91879 28.7149 2.45605 28.4026 2.19319L26.7323 0.789901C26.1252 0.279925 25.3251 -0.000732422 24.4792 -0.000732422H15.5215C14.6756 -0.000732422 13.8755 0.279925 13.2683 0.789901L11.5981 2.19319C11.2858 2.45605 11.2483 2.91879 11.5141 3.22683C11.6612 3.39728 11.8701 3.4849 12.0803 3.4849C12.2511 3.4849 12.4218 3.4274 12.5619 3.30966L14.2315 1.90637C14.5653 1.6264 15.0357 1.46553 15.5215 1.46553H15.5499L16.5623 5.71989C12.9866 5.89855 9.42196 6.35377 5.90173 7.0869C3.4425 7.59824 1.68274 9.73877 1.68274 12.2188V17.3336H0.841711C0.376788 17.3336 0.000686646 17.7053 0.000686646 18.1633V23.5903C0.000686646 24.0489 0.377482 24.4199 0.841711 24.4199H1.68274V46.8335C1.68274 49.7297 4.06286 52.0784 6.99951 52.0784H11.2456L6.5901 60.928C6.40066 61.2874 6.54291 61.7303 6.90722 61.9164C7.01685 61.9726 7.13343 61.9993 7.24932 61.9993C7.51786 61.9993 7.77739 61.8548 7.90923 61.6036L9.30053 58.9586H30.7002L32.0914 61.6036C32.224 61.8548 32.4828 61.9993 32.7514 61.9993C32.8666 61.9993 32.9838 61.9726 33.0935 61.9164C33.4578 61.7296 33.6 61.2874 33.4106 60.928L28.7551 52.0784H33.0012C35.9378 52.0784 38.3179 49.7297 38.3179 46.8335V24.4199H39.159C39.6239 24.4199 40 24.0482 40 23.5903V18.1633C40 17.7047 39.6232 17.3336 39.159 17.3336H39.1583ZM35.1412 16.9455V34.4236C35.1412 35.5709 34.1989 36.5012 33.0352 36.5012H20.7432V14.868H33.0352C34.1989 14.868 35.1412 15.7989 35.1412 16.9455ZM22.9235 1.46622L21.9589 5.51932C21.9478 5.56724 21.9416 5.61516 21.9395 5.66239C21.2934 5.64459 20.6467 5.63501 20 5.63501C19.3533 5.63501 18.7065 5.64459 18.0591 5.66239C18.0577 5.61516 18.0515 5.56724 18.0397 5.51932L17.0751 1.46622H22.9228H22.9235ZM14.8047 9.49097C14.9969 9.30136 15.2626 9.18362 15.5555 9.18362H24.4431C25.0295 9.18362 25.5055 9.65252 25.5055 10.2316C25.5055 10.5205 25.3869 10.7827 25.1939 10.9723C25.0017 11.1619 24.7367 11.2796 24.4431 11.2796H15.5555C14.9691 11.2796 14.4931 10.8107 14.4931 10.2316C14.4931 9.94276 14.6117 9.68058 14.8047 9.49097ZM4.85809 16.9455C4.85809 15.7982 5.80042 14.868 6.96412 14.868H19.2561V36.5012H6.96481C5.80112 36.5012 4.85878 35.5702 4.85878 34.4236V16.9455H4.85809ZM7.61848 46.3803C6.04676 46.3803 4.77274 45.1235 4.77274 43.5717C4.77274 42.0199 6.04676 40.7644 7.61848 40.7644C9.19019 40.7644 10.4656 42.0212 10.4656 43.5717C10.4656 45.1222 9.19158 46.3803 7.61848 46.3803ZM10.0708 57.493L10.9167 55.885H29.0819L29.9278 57.493H10.0715H10.0708ZM27.2646 52.4309L28.3103 54.4188H11.6876L12.7278 52.4412C12.7923 52.3289 12.8235 52.2043 12.8235 52.0791H27.173C27.173 52.2002 27.2035 52.3214 27.2639 52.4309H27.2646ZM32.3801 46.3803C30.807 46.3803 29.533 45.1235 29.533 43.5717C29.533 42.0199 30.807 40.7644 32.3801 40.7644C33.9532 40.7644 35.2259 42.0212 35.2259 43.5717C35.2259 45.1222 33.9518 46.3803 32.3801 46.3803Z" fill="#9E280E"/>
</g>
<defs>
<clipPath id="clip0_1115_6954">
<rect width="40" height="62" fill="white"/>
</clipPath>
</defs>
</svg>
